<svg xmlns="http://www.w3.org/2000/svg" viewBox="0 0 112.2 142.4">
    <defs>
        <style>
            .cls-1{fill:#fff}
        </style>
    </defs>
    <path id="_2" d="M112.4-26.4V0H6.6v-21l54-51q8.6-8.2 11.6-14.1a25.648 25.648 0 0 0 3-11.7q0-8.4-5.7-12.9t-16.7-4.5a38.349 38.349 0 0 0-16.6 3.5 31.789 31.789 0 0 0-12.4 10.5L.2-116.4a55.363 55.363 0 0 1 22.6-19.1q14.4-6.9 33-6.9 15.6 0 27.3 5.1a42.077 42.077 0 0 1 18.2 14.4 37.258 37.258 0 0 1 6.5 21.9 48.817 48.817 0 0 1-4.8 21.4q-4.8 10-18.6 22.8L52.2-26.4z" class="cls-1" data-name="2" transform="translate(-.2 142.401)"/>
</svg>
