<svg xmlns="http://www.w3.org/2000/svg" viewBox="0 0 436.25 436.375">
    <defs>
        <style>
            .cls-1,.cls-10,.cls-11,.cls-12,.cls-14,.cls-15,.cls-18,.cls-2,.cls-3,.cls-4,.cls-5,.cls-6,.cls-7,.cls-8,.cls-9{fill:none}.cls-1,.cls-15,.cls-18,.cls-7{stroke:#b2b2b2}.cls-1,.cls-10,.cls-11,.cls-14,.cls-15,.cls-2,.cls-3,.cls-4,.cls-5,.cls-6,.cls-7,.cls-9{stroke-miterlimit:10}.cls-11,.cls-14,.cls-2,.cls-5{stroke:#be1622}.cls-12,.cls-14,.cls-15,.cls-18,.cls-2,.cls-3,.cls-4,.cls-6{stroke-width:.25px}.cls-3,.cls-9{stroke:#009fe3}.cls-10,.cls-12,.cls-4,.cls-6,.cls-8{stroke:#3a5695}.cls-4{stroke-dasharray:3.002 3.002}.cls-5,.cls-7,.cls-8{stroke-width:.5px}.cls-7{stroke-dasharray:7.938 4.962}.cls-8{stroke-dasharray:2.992 2.992}.cls-13{fill:#be1622}.cls-14{stroke-dasharray:3 3}.cls-16{fill:#3a5695}.cls-17{fill:#c6c6c6}
        </style>
    </defs>
    <g id="scheme" transform="translate(-1321.875 -1108.875)">
        <ellipse id="Ellipse_103" cx="39.09" cy="39.069" class="cls-1" data-name="Ellipse 103" rx="39.09" ry="39.069" transform="translate(1606.936 1287.872)"/>
        <ellipse id="Ellipse_104" cx="41.681" cy="41.658" class="cls-2" data-name="Ellipse 104" rx="41.681" ry="41.658" transform="translate(1322 1461.683)"/>
        <ellipse id="Ellipse_105" cx="17.426" cy="17.416" class="cls-2" data-name="Ellipse 105" rx="17.426" ry="17.416" transform="translate(1723.03 1109.118)"/>
        <g id="Group_246" data-name="Group 246" transform="translate(1373.689 1267.042)">
            <path id="Line_246" d="M0 0v24.124" class="cls-2" data-name="Line 246" transform="translate(59.695)"/>
            <path id="Line_247" d="M0 0v24.124" class="cls-2" data-name="Line 247" transform="translate(59.695 95.202)"/>
            <path id="Line_248" d="M0 17.063L17.073 0" class="cls-2" data-name="Line 248" transform="translate(17.544 84.846)"/>
            <path id="Line_249" d="M0 17.181L17.073 0" class="cls-2" data-name="Line 249" transform="translate(84.892 17.416)"/>
            <path id="Line_250" d="M0 0l17.073 17.181" class="cls-2" data-name="Line 250" transform="translate(17.544 17.416)"/>
            <path id="Line_251" d="M0 0l17.073 17.063" class="cls-2" data-name="Line 251" transform="translate(84.892 84.846)"/>
            <path id="Line_252" d="M0 0v24.124" class="cls-2" data-name="Line 252" transform="translate(59.695)"/>
            <path id="Line_253" d="M0 0v24.124" class="cls-2" data-name="Line 253" transform="translate(59.695 95.202)"/>
            <path id="Line_254" d="M0 17.063L17.073 0" class="cls-2" data-name="Line 254" transform="translate(17.544 84.846)"/>
            <path id="Line_255" d="M0 17.181L17.073 0" class="cls-2" data-name="Line 255" transform="translate(84.892 17.416)"/>
            <path id="Line_256" d="M0 0l17.073 17.181" class="cls-2" data-name="Line 256" transform="translate(17.544 17.416)"/>
            <path id="Line_257" d="M0 0l17.073 17.063" class="cls-2" data-name="Line 257" transform="translate(84.892 84.846)"/>
            <path id="Line_258" d="M0 0l9.066 22.359" class="cls-2" data-name="Line 258" transform="translate(37.324 4.354)"/>
            <path id="Line_259" d="M0 0l8.948 22.359" class="cls-2" data-name="Line 259" transform="translate(73.118 92.613)"/>
            <path id="Line_260" d="M0 9.061L22.371 0" class="cls-2" data-name="Line 260" transform="translate(4.356 72.961)"/>
            <path id="Line_261" d="M0 9.061L22.489 0" class="cls-2" data-name="Line 261" transform="translate(92.663 37.304)"/>
            <path id="Line_262" d="M0 22.241L9.419 0" class="cls-2" data-name="Line 262" transform="translate(36.382 92.378)"/>
            <path id="Line_263" d="M0 22.241L9.537 0" class="cls-2" data-name="Line 263" transform="translate(73.589 4.707)"/>
            <path id="Line_264" d="M0 0l22.253 9.414" class="cls-2" data-name="Line 264" transform="translate(4.71 36.363)"/>
            <path id="Line_265" d="M0 0l22.253 9.414" class="cls-2" data-name="Line 265" transform="translate(92.428 73.549)"/>
            <path id="Line_266" d="M0 0l4.71 23.771" class="cls-2" data-name="Line 266" transform="translate(48.274 1.059)"/>
            <path id="Line_267" d="M0 0l4.592 23.653" class="cls-2" data-name="Line 267" transform="translate(66.524 94.614)"/>
            <path id="Line_268" d="M0 4.589L23.784 0" class="cls-2" data-name="Line 268" transform="translate(1.06 66.488)"/>
            <path id="Line_269" d="M0 4.589L23.666 0" class="cls-2" data-name="Line 269" transform="translate(94.665 48.248)"/>
            <path id="Line_270" d="M0 20.005L13.423 0" class="cls-2" data-name="Line 270" transform="translate(26.374 89.2)"/>
            <path id="Line_271" d="M0 20.005L13.54 0" class="cls-2" data-name="Line 271" transform="translate(79.594 10.238)"/>
            <path id="Line_272" d="M0 0l20.016 13.415" class="cls-2" data-name="Line 272" transform="translate(10.244 26.36)"/>
            <path id="Line_273" d="M0 0l20.016 13.533" class="cls-2" data-name="Line 273" transform="translate(89.249 79.551)"/>
            <path id="Line_274" d="M0 0l4.71 23.771" class="cls-2" data-name="Line 274" transform="translate(48.274 1.059)"/>
            <path id="Line_275" d="M0 0l4.592 23.653" class="cls-2" data-name="Line 275" transform="translate(66.524 94.614)"/>
            <path id="Line_276" d="M0 4.589L23.784 0" class="cls-2" data-name="Line 276" transform="translate(1.06 66.488)"/>
            <path id="Line_277" d="M0 4.589L23.666 0" class="cls-2" data-name="Line 277" transform="translate(94.665 48.248)"/>
            <path id="Line_278" d="M0 20.005L13.423 0" class="cls-2" data-name="Line 278" transform="translate(26.374 89.2)"/>
            <path id="Line_279" d="M0 20.005L13.54 0" class="cls-2" data-name="Line 279" transform="translate(79.594 10.238)"/>
            <path id="Line_280" d="M0 0l20.016 13.415" class="cls-2" data-name="Line 280" transform="translate(10.244 26.36)"/>
            <path id="Line_281" d="M0 0l20.016 13.533" class="cls-2" data-name="Line 281" transform="translate(89.249 79.551)"/>
            <path id="Line_282" d="M0 0l13.187 20.241" class="cls-2" data-name="Line 282" transform="translate(27.198 9.65)"/>
            <path id="Line_283" d="M0 0l13.187 20.358" class="cls-2" data-name="Line 283" transform="translate(79.123 89.436)"/>
            <path id="Line_284" d="M0 13.18L20.252 0" class="cls-2" data-name="Line 284" transform="translate(9.655 79.08)"/>
            <path id="Line_285" d="M0 13.18L20.252 0" class="cls-2" data-name="Line 285" transform="translate(89.602 27.184)"/>
            <path id="Line_286" d="M0 23.536L5.063 0" class="cls-2" data-name="Line 286" transform="translate(47.332 94.496)"/>
            <path id="Line_287" d="M0 23.653L5.063 0" class="cls-2" data-name="Line 287" transform="translate(67.113 1.294)"/>
            <path id="Line_288" d="M0 0l23.666 4.943" class="cls-2" data-name="Line 288" transform="translate(1.295 47.307)"/>
            <path id="Line_289" d="M0 0l23.666 5.06" class="cls-2" data-name="Line 289" transform="translate(94.547 67.077)"/>
            <path id="Line_290" d="M0 0l2.237 24.006" class="cls-2" data-name="Line 290" transform="translate(54.161 .235)"/>
            <path id="Line_291" d="M0 0l2.355 24.006" class="cls-2" data-name="Line 291" transform="translate(62.992 95.084)"/>
            <path id="Line_292" d="M0 2.236L24.137 0" class="cls-2" data-name="Line 292" transform="translate(.235 62.958)"/>
            <path id="Line_293" d="M0 2.236L24.019 0" class="cls-2" data-name="Line 293" transform="translate(95.136 54.132)"/>
            <path id="Line_294" d="M0 18.593L15.424 0" class="cls-2" data-name="Line 294" transform="translate(21.665 87.082)"/>
            <path id="Line_295" d="M0 18.593L15.424 0" class="cls-2" data-name="Line 295" transform="translate(82.42 13.768)"/>
            <path id="Line_296" d="M0 0l18.603 15.416" class="cls-2" data-name="Line 296" transform="translate(13.776 21.535)"/>
            <path id="Line_297" d="M0 0l18.603 15.416" class="cls-2" data-name="Line 297" transform="translate(87.129 82.375)"/>
            <path id="Line_298" d="M0 0l2.237 24.006" class="cls-2" data-name="Line 298" transform="translate(54.161 .235)"/>
            <path id="Line_299" d="M0 0l2.355 24.006" class="cls-2" data-name="Line 299" transform="translate(62.992 95.084)"/>
            <path id="Line_300" d="M0 2.236L24.137 0" class="cls-2" data-name="Line 300" transform="translate(.235 62.958)"/>
            <path id="Line_301" d="M0 2.236L24.019 0" class="cls-2" data-name="Line 301" transform="translate(95.136 54.132)"/>
            <path id="Line_302" d="M0 18.593L15.424 0" class="cls-2" data-name="Line 302" transform="translate(21.665 87.082)"/>
            <path id="Line_303" d="M0 18.593L15.424 0" class="cls-2" data-name="Line 303" transform="translate(82.42 13.768)"/>
            <path id="Line_304" d="M0 0l18.603 15.416" class="cls-2" data-name="Line 304" transform="translate(13.776 21.535)"/>
            <path id="Line_305" d="M0 0l18.603 15.416" class="cls-2" data-name="Line 305" transform="translate(87.129 82.375)"/>
            <path id="Line_306" d="M0 0l11.186 21.418" class="cls-2" data-name="Line 306" transform="translate(32.261 6.708)"/>
            <path id="Line_307" d="M0 0l11.068 21.418" class="cls-2" data-name="Line 307" transform="translate(76.062 91.319)"/>
            <path id="Line_308" d="M0 11.062L21.429 0" class="cls-2" data-name="Line 308" transform="translate(6.711 76.02)"/>
            <path id="Line_309" d="M0 11.062L21.429 0" class="cls-2" data-name="Line 309" transform="translate(91.368 32.244)"/>
            <path id="Line_310" d="M0 23.065L7.418 0" class="cls-2" data-name="Line 310" transform="translate(41.563 93.555)"/>
            <path id="Line_311" d="M0 22.947L7.3 0" class="cls-2" data-name="Line 311" transform="translate(70.528 2.824)"/>
            <path id="Line_312" d="M0 0l22.96 7.414" class="cls-2" data-name="Line 312" transform="translate(2.826 41.541)"/>
            <path id="Line_313" d="M0 0l23.078 7.296" class="cls-2" data-name="Line 313" transform="translate(93.605 70.49)"/>
            <path id="Line_314" d="M0 0l6.711 23.183" class="cls-2" data-name="Line 314" transform="translate(42.976 2.354)"/>
            <path id="Line_315" d="M0 0l6.829 23.183" class="cls-2" data-name="Line 315" transform="translate(69.703 93.79)"/>
            <path id="Line_316" d="M0 6.825L23.078 0" class="cls-2" data-name="Line 316" transform="translate(2.473 69.666)"/>
            <path id="Line_317" d="M0 6.825L23.195 0" class="cls-2" data-name="Line 317" transform="translate(93.841 42.835)"/>
            <path id="Line_318" d="M0 21.182L11.656 0" class="cls-2" data-name="Line 318" transform="translate(31.084 90.848)"/>
            <path id="Line_319" d="M0 21.182L11.656 0" class="cls-2" data-name="Line 319" transform="translate(76.768 7.296)"/>
            <path id="Line_320" d="M0 0l21.194 11.533" class="cls-2" data-name="Line 320" transform="translate(7.3 31.067)"/>
            <path id="Line_321" d="M0 0l21.194 11.533" class="cls-2" data-name="Line 321" transform="translate(90.897 76.727)"/>
            <path id="Line_322" d="M0 0l6.711 23.183" class="cls-2" data-name="Line 322" transform="translate(42.976 2.354)"/>
            <path id="Line_323" d="M0 0l6.829 23.183" class="cls-2" data-name="Line 323" transform="translate(69.703 93.79)"/>
            <path id="Line_324" d="M0 6.825L23.078 0" class="cls-2" data-name="Line 324" transform="translate(2.473 69.666)"/>
            <path id="Line_325" d="M0 6.825L23.195 0" class="cls-2" data-name="Line 325" transform="translate(93.841 42.835)"/>
            <path id="Line_326" d="M0 21.182L11.656 0" class="cls-2" data-name="Line 326" transform="translate(31.084 90.848)"/>
            <path id="Line_327" d="M0 21.182L11.656 0" class="cls-2" data-name="Line 327" transform="translate(76.768 7.296)"/>
            <path id="Line_328" d="M0 0l21.194 11.533" class="cls-2" data-name="Line 328" transform="translate(7.3 31.067)"/>
            <path id="Line_329" d="M0 0l21.194 11.533" class="cls-2" data-name="Line 329" transform="translate(90.897 76.727)"/>
            <path id="Line_330" d="M0 0l14.953 18.946" class="cls-2" data-name="Line 330" transform="translate(22.724 12.827)"/>
            <path id="Line_331" d="M0 0l14.953 18.946" class="cls-2" data-name="Line 331" transform="translate(81.831 87.553)"/>
            <path id="Line_332" d="M0 14.945L18.839 0" class="cls-2" data-name="Line 332" transform="translate(12.952 81.787)"/>
            <path id="Line_333" d="M0 15.063L18.957 0" class="cls-2" data-name="Line 333" transform="translate(87.6 22.594)"/>
            <path id="Line_334" d="M0 24.006L2.708 0" class="cls-2" data-name="Line 334" transform="translate(52.866 94.967)"/>
            <path id="Line_335" d="M0 24.006L2.826 0" class="cls-2" data-name="Line 335" transform="translate(63.816 .353)"/>
            <path id="Line_336" d="M0 0l23.902 2.824" class="cls-2" data-name="Line 336" transform="translate(.471 52.72)"/>
            <path id="Line_337" d="M0 0l24.019 2.824" class="cls-2" data-name="Line 337" transform="translate(95.018 63.782)"/>
            <path id="Line_338" d="M0 0v24.124" class="cls-2" data-name="Line 338" transform="translate(59.695)"/>
            <path id="Line_339" d="M0 0v24.124" class="cls-2" data-name="Line 339" transform="translate(59.695 95.202)"/>
            <path id="Line_340" d="M0 17.063L17.073 0" class="cls-2" data-name="Line 340" transform="translate(17.544 84.846)"/>
            <path id="Line_341" d="M0 17.181L17.073 0" class="cls-2" data-name="Line 341" transform="translate(84.892 17.416)"/>
            <path id="Line_342" d="M0 0l17.073 17.181" class="cls-2" data-name="Line 342" transform="translate(17.544 17.416)"/>
            <path id="Line_343" d="M0 0l17.073 17.063" class="cls-2" data-name="Line 343" transform="translate(84.892 84.846)"/>
            <path id="Line_344" d="M0 0v24.124" class="cls-2" data-name="Line 344" transform="translate(59.695)"/>
            <path id="Line_345" d="M0 0v24.124" class="cls-2" data-name="Line 345" transform="translate(59.695 95.202)"/>
            <path id="Line_346" d="M0 0h24.137" class="cls-2" data-name="Line 346" transform="translate(0 60.369)"/>
            <path id="Line_347" d="M0 0h24.255" class="cls-2" data-name="Line 347" transform="translate(95.254 60.369)"/>
            <path id="Line_348" d="M0 17.063L17.073 0" class="cls-2" data-name="Line 348" transform="translate(17.544 84.846)"/>
            <path id="Line_349" d="M0 17.181L17.073 0" class="cls-2" data-name="Line 349" transform="translate(84.892 17.416)"/>
            <path id="Line_350" d="M0 0l17.073 17.181" class="cls-2" data-name="Line 350" transform="translate(17.544 17.416)"/>
            <path id="Line_351" d="M0 0l17.073 17.063" class="cls-2" data-name="Line 351" transform="translate(84.892 84.846)"/>
            <path id="Line_352" d="M0 0l9.066 22.359" class="cls-2" data-name="Line 352" transform="translate(37.324 4.354)"/>
            <path id="Line_353" d="M0 0l8.948 22.359" class="cls-2" data-name="Line 353" transform="translate(73.118 92.613)"/>
            <path id="Line_354" d="M0 9.061L22.371 0" class="cls-2" data-name="Line 354" transform="translate(4.356 72.961)"/>
            <path id="Line_355" d="M0 9.061L22.489 0" class="cls-2" data-name="Line 355" transform="translate(92.663 37.304)"/>
            <path id="Line_356" d="M0 22.241L9.419 0" class="cls-2" data-name="Line 356" transform="translate(36.382 92.378)"/>
            <path id="Line_357" d="M0 22.241L9.537 0" class="cls-2" data-name="Line 357" transform="translate(73.589 4.707)"/>
            <path id="Line_358" d="M0 0l22.253 9.414" class="cls-2" data-name="Line 358" transform="translate(4.71 36.363)"/>
            <path id="Line_359" d="M0 0l22.253 9.414" class="cls-2" data-name="Line 359" transform="translate(92.428 73.549)"/>
            <path id="Line_360" d="M0 0l4.71 23.771" class="cls-2" data-name="Line 360" transform="translate(48.274 1.059)"/>
            <path id="Line_361" d="M0 0l4.592 23.653" class="cls-2" data-name="Line 361" transform="translate(66.524 94.614)"/>
            <path id="Line_362" d="M0 4.589L23.784 0" class="cls-2" data-name="Line 362" transform="translate(1.06 66.488)"/>
            <path id="Line_363" d="M0 4.589L23.666 0" class="cls-2" data-name="Line 363" transform="translate(94.665 48.248)"/>
            <path id="Line_364" d="M0 20.005L13.423 0" class="cls-2" data-name="Line 364" transform="translate(26.374 89.2)"/>
            <path id="Line_365" d="M0 20.005L13.54 0" class="cls-2" data-name="Line 365" transform="translate(79.594 10.238)"/>
            <path id="Line_366" d="M0 0l20.016 13.415" class="cls-2" data-name="Line 366" transform="translate(10.244 26.36)"/>
            <path id="Line_367" d="M0 0l20.016 13.533" class="cls-2" data-name="Line 367" transform="translate(89.249 79.551)"/>
            <path id="Line_368" d="M0 0l4.71 23.771" class="cls-2" data-name="Line 368" transform="translate(48.274 1.059)"/>
            <path id="Line_369" d="M0 0l4.592 23.653" class="cls-2" data-name="Line 369" transform="translate(66.524 94.614)"/>
            <path id="Line_370" d="M0 4.589L23.784 0" class="cls-2" data-name="Line 370" transform="translate(1.06 66.488)"/>
            <path id="Line_371" d="M0 4.589L23.666 0" class="cls-2" data-name="Line 371" transform="translate(94.665 48.248)"/>
            <path id="Line_372" d="M0 20.005L13.423 0" class="cls-2" data-name="Line 372" transform="translate(26.374 89.2)"/>
            <path id="Line_373" d="M0 20.005L13.54 0" class="cls-2" data-name="Line 373" transform="translate(79.594 10.238)"/>
            <path id="Line_374" d="M0 0l20.016 13.415" class="cls-2" data-name="Line 374" transform="translate(10.244 26.36)"/>
            <path id="Line_375" d="M0 0l20.016 13.533" class="cls-2" data-name="Line 375" transform="translate(89.249 79.551)"/>
            <path id="Line_376" d="M0 0l13.187 20.241" class="cls-2" data-name="Line 376" transform="translate(27.198 9.65)"/>
            <path id="Line_377" d="M0 0l13.187 20.358" class="cls-2" data-name="Line 377" transform="translate(79.123 89.436)"/>
            <path id="Line_378" d="M0 13.18L20.252 0" class="cls-2" data-name="Line 378" transform="translate(9.655 79.08)"/>
            <path id="Line_379" d="M0 13.18L20.252 0" class="cls-2" data-name="Line 379" transform="translate(89.602 27.184)"/>
            <path id="Line_380" d="M0 23.536L5.063 0" class="cls-2" data-name="Line 380" transform="translate(47.332 94.496)"/>
            <path id="Line_381" d="M0 23.653L5.063 0" class="cls-2" data-name="Line 381" transform="translate(67.113 1.294)"/>
            <path id="Line_382" d="M0 0l23.666 4.943" class="cls-2" data-name="Line 382" transform="translate(1.295 47.307)"/>
            <path id="Line_383" d="M0 0l23.666 5.06" class="cls-2" data-name="Line 383" transform="translate(94.547 67.077)"/>
            <path id="Line_384" d="M0 0l2.237 24.006" class="cls-2" data-name="Line 384" transform="translate(54.161 .235)"/>
            <path id="Line_385" d="M0 0l2.355 24.006" class="cls-2" data-name="Line 385" transform="translate(62.992 95.084)"/>
            <path id="Line_386" d="M0 2.236L24.137 0" class="cls-2" data-name="Line 386" transform="translate(.235 62.958)"/>
            <path id="Line_387" d="M0 2.236L24.019 0" class="cls-2" data-name="Line 387" transform="translate(95.136 54.132)"/>
            <path id="Line_388" d="M0 18.593L15.424 0" class="cls-2" data-name="Line 388" transform="translate(21.665 87.082)"/>
            <path id="Line_389" d="M0 18.593L15.424 0" class="cls-2" data-name="Line 389" transform="translate(82.42 13.768)"/>
            <path id="Line_390" d="M0 0l18.603 15.416" class="cls-2" data-name="Line 390" transform="translate(13.776 21.535)"/>
            <path id="Line_391" d="M0 0l18.603 15.416" class="cls-2" data-name="Line 391" transform="translate(87.129 82.375)"/>
            <path id="Line_392" d="M0 0l2.237 24.006" class="cls-2" data-name="Line 392" transform="translate(54.161 .235)"/>
            <path id="Line_393" d="M0 0l2.355 24.006" class="cls-2" data-name="Line 393" transform="translate(62.992 95.084)"/>
            <path id="Line_394" d="M0 2.236L24.137 0" class="cls-2" data-name="Line 394" transform="translate(.235 62.958)"/>
            <path id="Line_395" d="M0 2.236L24.019 0" class="cls-2" data-name="Line 395" transform="translate(95.136 54.132)"/>
            <path id="Line_396" d="M0 18.593L15.424 0" class="cls-2" data-name="Line 396" transform="translate(21.665 87.082)"/>
            <path id="Line_397" d="M0 18.593L15.424 0" class="cls-2" data-name="Line 397" transform="translate(82.42 13.768)"/>
            <path id="Line_398" d="M0 0l18.603 15.416" class="cls-2" data-name="Line 398" transform="translate(13.776 21.535)"/>
            <path id="Line_399" d="M0 0l18.603 15.416" class="cls-2" data-name="Line 399" transform="translate(87.129 82.375)"/>
            <path id="Line_400" d="M0 0l11.186 21.418" class="cls-2" data-name="Line 400" transform="translate(32.261 6.708)"/>
            <path id="Line_401" d="M0 0l11.068 21.418" class="cls-2" data-name="Line 401" transform="translate(76.062 91.319)"/>
            <path id="Line_402" d="M0 11.062L21.429 0" class="cls-2" data-name="Line 402" transform="translate(6.711 76.02)"/>
            <path id="Line_403" d="M0 11.062L21.429 0" class="cls-2" data-name="Line 403" transform="translate(91.368 32.244)"/>
            <path id="Line_404" d="M0 23.065L7.418 0" class="cls-2" data-name="Line 404" transform="translate(41.563 93.555)"/>
            <path id="Line_405" d="M0 22.947L7.3 0" class="cls-2" data-name="Line 405" transform="translate(70.528 2.824)"/>
            <path id="Line_406" d="M0 0l22.96 7.414" class="cls-2" data-name="Line 406" transform="translate(2.826 41.541)"/>
            <path id="Line_407" d="M0 0l23.078 7.296" class="cls-2" data-name="Line 407" transform="translate(93.605 70.49)"/>
            <path id="Line_408" d="M0 0l6.711 23.183" class="cls-2" data-name="Line 408" transform="translate(42.976 2.354)"/>
            <path id="Line_409" d="M0 0l6.829 23.183" class="cls-2" data-name="Line 409" transform="translate(69.703 93.79)"/>
            <path id="Line_410" d="M0 6.825L23.078 0" class="cls-2" data-name="Line 410" transform="translate(2.473 69.666)"/>
            <path id="Line_411" d="M0 6.825L23.195 0" class="cls-2" data-name="Line 411" transform="translate(93.841 42.835)"/>
            <path id="Line_412" d="M0 21.182L11.656 0" class="cls-2" data-name="Line 412" transform="translate(31.084 90.848)"/>
            <path id="Line_413" d="M0 21.182L11.656 0" class="cls-2" data-name="Line 413" transform="translate(76.768 7.296)"/>
            <path id="Line_414" d="M0 0l21.194 11.533" class="cls-2" data-name="Line 414" transform="translate(7.3 31.067)"/>
            <path id="Line_415" d="M0 0l21.194 11.533" class="cls-2" data-name="Line 415" transform="translate(90.897 76.727)"/>
            <path id="Line_416" d="M0 0l6.711 23.183" class="cls-2" data-name="Line 416" transform="translate(42.976 2.354)"/>
            <path id="Line_417" d="M0 0l6.829 23.183" class="cls-2" data-name="Line 417" transform="translate(69.703 93.79)"/>
            <path id="Line_418" d="M0 6.825L23.078 0" class="cls-2" data-name="Line 418" transform="translate(2.473 69.666)"/>
            <path id="Line_419" d="M0 6.825L23.195 0" class="cls-2" data-name="Line 419" transform="translate(93.841 42.835)"/>
            <path id="Line_420" d="M0 21.182L11.656 0" class="cls-2" data-name="Line 420" transform="translate(31.084 90.848)"/>
            <path id="Line_421" d="M0 21.182L11.656 0" class="cls-2" data-name="Line 421" transform="translate(76.768 7.296)"/>
            <path id="Line_422" d="M0 0l21.194 11.533" class="cls-2" data-name="Line 422" transform="translate(7.3 31.067)"/>
            <path id="Line_423" d="M0 0l21.194 11.533" class="cls-2" data-name="Line 423" transform="translate(90.897 76.727)"/>
            <path id="Line_424" d="M0 0l14.953 18.946" class="cls-2" data-name="Line 424" transform="translate(22.724 12.827)"/>
            <path id="Line_425" d="M0 0l14.953 18.946" class="cls-2" data-name="Line 425" transform="translate(81.831 87.553)"/>
            <path id="Line_426" d="M0 14.945L18.839 0" class="cls-2" data-name="Line 426" transform="translate(12.952 81.787)"/>
            <path id="Line_427" d="M0 15.063L18.957 0" class="cls-2" data-name="Line 427" transform="translate(87.6 22.594)"/>
            <path id="Line_428" d="M0 24.006L2.708 0" class="cls-2" data-name="Line 428" transform="translate(52.866 94.967)"/>
            <path id="Line_429" d="M0 24.006L2.826 0" class="cls-2" data-name="Line 429" transform="translate(63.816 .353)"/>
            <path id="Line_430" d="M0 0l23.902 2.824" class="cls-2" data-name="Line 430" transform="translate(.471 52.72)"/>
            <path id="Line_431" d="M0 0l24.019 2.824" class="cls-2" data-name="Line 431" transform="translate(95.018 63.782)"/>
        </g>
        <g id="Group_247" data-name="Group 247" transform="translate(1359.089 1109)">
            <g id="Group_41" data-name="Group 41">
                <path id="Line_432" d="M1.295 0L0 1.294" class="cls-3" data-name="Line 432" transform="translate(285.172)"/>
                <path id="Line_433" d="M280.227 0L0 286.901" class="cls-4" data-name="Line 433" transform="translate(2.473 3.766)"/>
                <path id="Line_434" d="M1.295 0L0 1.177" class="cls-3" data-name="Line 434" transform="translate(0 291.961)"/>
            </g>
        </g>
        <g id="Group_248" data-name="Group 248" transform="translate(1530.169 1205.143)">
            <ellipse id="Ellipse_48" cx="10.95" cy="10.944" class="cls-5" data-name="Ellipse 48" rx="10.95" ry="10.944"/>
        </g>
        <g id="Group_249" data-name="Group 249" transform="translate(1440.802 1328.236)">
            <ellipse id="Ellipse_49" cx="99.257" cy="99.203" class="cls-6" data-name="Ellipse 49" rx="99.257" ry="99.203"/>
        </g>
        <g id="Group_250" data-name="Group 250" transform="translate(1419.137 1303.288)">
            <ellipse id="Ellipse_50" cx="120.921" cy="120.856" class="cls-7" data-name="Ellipse 50" rx="120.921" ry="120.856"/>
        </g>
        <ellipse id="Ellipse_106" cx="105.144" cy="105.087" class="cls-6" data-name="Ellipse 106" rx="105.144" ry="105.087" transform="translate(1434.68 1109.471)"/>
        <g id="Group_251" data-name="Group 251" transform="translate(1578.874 1215.261)">
            <path id="Path_367" d="M47.107-10.085a57.207 57.207 0 1 1-57.192 57.192 57.245 57.245 0 0 1 57.192-57.192z" class="cls-8" data-name="Path 367" transform="rotate(-45 134.822 55.845)"/>
        </g>
        <g id="Group_252" data-name="Group 252" transform="translate(1322 1218.324)">
            <g id="Group_48" data-name="Group 48">
                <ellipse id="Ellipse_53" cx="103.849" cy="103.793" class="cls-9" data-name="Ellipse 53" rx="103.849" ry="103.793" transform="translate(6.711 6.708)"/>
                <path id="Line_435" d="M0 6.708V0" class="cls-9" data-name="Line 435" transform="translate(110.56)"/>
                <path id="Line_436" d="M0 6.59V0" class="cls-10" data-name="Line 436" transform="translate(110.56 214.293)"/>
                <path id="Line_437" d="M6.711 0H0" class="cls-10" data-name="Line 437" transform="translate(0 110.5)"/>
                <path id="Line_438" d="M6.594 0H0" class="cls-10" data-name="Line 438" transform="translate(214.409 110.5)"/>
                <path id="Line_439" d="M4.71 0L0 4.825" class="cls-10" data-name="Line 439" transform="translate(32.379 183.814)"/>
                <path id="Line_440" d="M4.827 0L0 4.707" class="cls-10" data-name="Line 440" transform="translate(183.914 32.362)"/>
                <path id="Line_441" d="M4.71 4.707L0 0" class="cls-10" data-name="Line 441" transform="translate(32.379 32.362)"/>
                <path id="Line_442" d="M4.827 4.825L0 0" class="cls-10" data-name="Line 442" transform="translate(183.914 183.814)"/>
                <g id="Group_47" data-name="Group 47" transform="translate(8.124 8.12)">
                    <path id="Line_443" d="M2.473 6.119L0 0" class="cls-10" data-name="Line 443" transform="translate(60.991)"/>
                    <path id="Line_444" d="M2.59 6.237L0 0" class="cls-10" data-name="Line 444" transform="translate(141.291 198.524)"/>
                    <path id="Line_445" d="M6.123 0L0 2.589" class="cls-10" data-name="Line 445" transform="translate(0 141.214)"/>
                    <path id="Line_446" d="M6.24 0L0 2.471" class="cls-10" data-name="Line 446" transform="translate(198.631 60.958)"/>
                    <path id="Line_447" d="M2.59 0L0 6.119" class="cls-10" data-name="Line 447" transform="translate(59.224 197.936)"/>
                    <path id="Line_448" d="M2.59 0L0 6.119" class="cls-10" data-name="Line 448" transform="translate(142.939 .706)"/>
                    <path id="Line_449" d="M6.123 2.589L0 0" class="cls-10" data-name="Line 449" transform="translate(.706 59.192)"/>
                    <path id="Line_450" d="M6.123 2.589L0 0" class="cls-10" data-name="Line 450" transform="translate(198.043 142.862)"/>
                </g>
            </g>
            <g id="Group_50" data-name="Group 50" transform="translate(2.119 2.118)">
                <ellipse id="Ellipse_54" cx="103.849" cy="103.793" class="cls-9" data-name="Ellipse 54" rx="103.849" ry="103.793" transform="translate(4.592 4.589)"/>
                <path id="Line_451" d="M1.295 6.59L0 0" class="cls-10" data-name="Line 451" transform="translate(86.894)"/>
                <path id="Line_452" d="M1.413 6.472L0 0" class="cls-10" data-name="Line 452" transform="translate(128.575 210.174)"/>
                <path id="Line_453" d="M6.594 0L0 1.412" class="cls-10" data-name="Line 453" transform="translate(0 128.505)"/>
                <path id="Line_454" d="M6.594 0L0 1.294" class="cls-10" data-name="Line 454" transform="translate(210.288 86.847)"/>
                <path id="Line_455" d="M3.768 0L0 5.531" class="cls-10" data-name="Line 455" transform="translate(46.979 194.641)"/>
                <path id="Line_456" d="M3.768 0L0 5.531" class="cls-10" data-name="Line 456" transform="translate(166.134 16.593)"/>
                <path id="Line_457" d="M5.534 3.766L0 0" class="cls-10" data-name="Line 457" transform="translate(16.602 46.954)"/>
                <path id="Line_458" d="M5.534 3.766L0 0" class="cls-10" data-name="Line 458" transform="translate(194.746 166.045)"/>
                <g id="Group_49" data-name="Group 49" transform="translate(.235 .235)">
                    <path id="Line_459" d="M3.65 5.531L0 0" class="cls-10" data-name="Line 459" transform="translate(47.568 15.769)"/>
                    <path id="Line_460" d="M3.65 5.649L0 0" class="cls-10" data-name="Line 460" transform="translate(165.075 194.876)"/>
                    <path id="Line_461" d="M5.534 0L0 3.648" class="cls-10" data-name="Line 461" transform="translate(15.777 164.985)"/>
                    <path id="Line_462" d="M5.652 0L0 3.648" class="cls-10" data-name="Line 462" transform="translate(194.981 47.542)"/>
                    <path id="Line_463" d="M1.295 0L0 6.59" class="cls-10" data-name="Line 463" transform="translate(85.716 209.703)"/>
                    <path id="Line_464" d="M1.295 0L0 6.472" class="cls-10" data-name="Line 464" transform="translate(129.399)"/>
                    <path id="Line_465" d="M6.594 1.294L0 0" class="cls-10" data-name="Line 465" transform="translate(0 85.67)"/>
                    <path id="Line_466" d="M6.594 1.294L0 0" class="cls-10" data-name="Line 466" transform="translate(209.817 129.329)"/>
                </g>
            </g>
            <g id="Group_52" data-name="Group 52" transform="translate(.471 .471)">
                <ellipse id="Ellipse_55" cx="103.849" cy="103.793" class="cls-9" data-name="Ellipse 55" rx="103.849" ry="103.793" transform="translate(6.24 6.237)"/>
                <path id="Line_467" d="M.589 6.708L0 0" class="cls-10" data-name="Line 467" transform="translate(99.728)"/>
                <path id="Line_468" d="M.706 6.59L0 0" class="cls-10" data-name="Line 468" transform="translate(119.744 213.351)"/>
                <path id="Line_469" d="M6.711 0L0 .706" class="cls-10" data-name="Line 469" transform="translate(0 119.679)"/>
                <path id="Line_470" d="M6.594 0L0 .588" class="cls-10" data-name="Line 470" transform="translate(213.467 99.674)"/>
                <path id="Line_471" d="M4.239 0L0 5.178" class="cls-10" data-name="Line 471" transform="translate(39.561 189.933)"/>
                <path id="Line_472" d="M4.356 0L0 5.178" class="cls-10" data-name="Line 472" transform="translate(176.26 24.948)"/>
                <path id="Line_473" d="M5.181 4.236L0 0" class="cls-10" data-name="Line 473" transform="translate(24.961 39.54)"/>
                <path id="Line_474" d="M5.181 4.354L0 0" class="cls-10" data-name="Line 474" transform="translate(190.036 176.165)"/>
                <g id="Group_51" data-name="Group 51" transform="translate(4.71 4.707)">
                    <path id="Line_475" d="M3.061 6.002L0 0" class="cls-10" data-name="Line 475" transform="translate(54.515 7.178)"/>
                    <path id="Line_476" d="M3.061 5.884L0 0" class="cls-10" data-name="Line 476" transform="translate(153.065 197.465)"/>
                    <path id="Line_477" d="M6.005 0L0 3.06" class="cls-10" data-name="Line 477" transform="translate(7.182 152.982)"/>
                    <path id="Line_478" d="M5.887 0L0 3.06" class="cls-10" data-name="Line 478" transform="translate(197.572 54.485)"/>
                    <path id="Line_479" d="M2.002 0L0 6.355" class="cls-10" data-name="Line 479" transform="translate(71.941 204.172)"/>
                    <path id="Line_480" d="M2.002 0L0 6.355" class="cls-10" data-name="Line 480" transform="translate(136.817)"/>
                    <path id="Line_481" d="M6.358 2.001L0 0" class="cls-10" data-name="Line 481" transform="translate(0 71.902)"/>
                    <path id="Line_482" d="M6.358 2.001L0 0" class="cls-10" data-name="Line 482" transform="translate(204.283 136.743)"/>
                </g>
            </g>
            <g id="Group_54" data-name="Group 54" transform="translate(.706 .706)">
                <ellipse id="Ellipse_56" cx="103.849" cy="103.793" class="cls-10" data-name="Ellipse 56" rx="103.849" ry="103.793" transform="translate(6.005 6.002)"/>
                <path id="Line_483" d="M1.884 6.472L0 0" class="cls-10" data-name="Line 483" transform="translate(78.299 3.883)"/>
                <path id="Line_484" d="M1.884 6.355L0 0" class="cls-10" data-name="Line 484" transform="translate(139.525 209.233)"/>
                <path id="Line_485" d="M6.476 0L0 1.883" class="cls-10" data-name="Line 485" transform="translate(3.885 139.449)"/>
                <path id="Line_486" d="M6.358 0L0 1.883" class="cls-10" data-name="Line 486" transform="translate(209.346 78.256)"/>
                <path id="Line_487" d="M3.179 0L0 5.884" class="cls-10" data-name="Line 487" transform="translate(57.223 200.995)"/>
                <path id="Line_488" d="M3.179 0L0 5.884" class="cls-10" data-name="Line 488" transform="translate(159.188 12.592)"/>
                <path id="Line_489" d="M5.887 3.177L0 0" class="cls-10" data-name="Line 489" transform="translate(12.598 57.192)"/>
                <path id="Line_490" d="M5.887 3.177L0 0" class="cls-10" data-name="Line 490" transform="translate(201.104 159.102)"/>
                <g id="Group_53" data-name="Group 53">
                    <path id="Line_491" d="M4.239 5.296L0 0" class="cls-10" data-name="Line 491" transform="translate(40.857 23.418)"/>
                    <path id="Line_492" d="M4.121 5.178L0 0" class="cls-10" data-name="Line 492" transform="translate(174.612 190.875)"/>
                    <path id="Line_493" d="M5.298 0L0 4.119" class="cls-10" data-name="Line 493" transform="translate(23.431 174.517)"/>
                    <path id="Line_494" d="M5.181 0L0 4.236" class="cls-10" data-name="Line 494" transform="translate(190.978 40.835)"/>
                    <path id="Line_495" d="M.824 0L0 6.708" class="cls-10" data-name="Line 495" transform="translate(97.491 212.881)"/>
                    <path id="Line_496" d="M.706 0L0 6.59" class="cls-10" data-name="Line 496" transform="translate(121.392)"/>
                    <path id="Line_497" d="M6.594.824L0 0" class="cls-10" data-name="Line 497" transform="translate(0 97.438)"/>
                    <path id="Line_498" d="M6.711.706L0 0" class="cls-10" data-name="Line 498" transform="translate(212.996 121.327)"/>
                </g>
            </g>
        </g>
        <g id="Group_253" data-name="Group 253" transform="translate(1536.527 1218.441)">
            <g id="Group_57" data-name="Group 57">
                <ellipse id="Ellipse_57" cx="103.849" cy="103.793" class="cls-11" data-name="Ellipse 57" rx="103.849" ry="103.793" transform="translate(6.594 6.59)"/>
                <path id="Line_499" d="M0 6.708L.235 0" class="cls-11" data-name="Line 499" transform="translate(115.505)"/>
                <path id="Line_500" d="M0 6.59L.235 0" class="cls-11" data-name="Line 500" transform="translate(105.026 214.058)"/>
                <path id="Line_501" d="M6.711.353L0 0" class="cls-11" data-name="Line 501" transform="translate(0 104.969)"/>
                <path id="Line_502" d="M6.711.353L0 0" class="cls-11" data-name="Line 502" transform="translate(214.056 115.443)"/>
                <path id="Line_503" d="M4.945 0L0 4.472" class="cls-11" data-name="Line 503" transform="translate(28.494 180.048)"/>
                <path id="Line_504" d="M4.945 0L0 4.472" class="cls-11" data-name="Line 504" transform="translate(187.328 36.127)"/>
                <path id="Line_505" d="M4.474 5.06L0 0" class="cls-11" data-name="Line 505" transform="translate(36.147 28.478)"/>
                <path id="Line_506" d="M4.474 4.943L0 0" class="cls-11" data-name="Line 506" transform="translate(180.146 187.227)"/>
                <g id="Group_56" data-name="Group 56" transform="translate(6.005 6.119)">
                    <path id="Line_507" d="M2.119 6.237L0 0" class="cls-11" data-name="Line 507" transform="translate(68.055)"/>
                    <path id="Line_508" d="M2.119 6.237L0 0" class="cls-11" data-name="Line 508" transform="translate(138.583 202.29)"/>
                    <path id="Line_509" d="M6.358 0L0 2.236" class="cls-11" data-name="Line 509" transform="translate(0 138.39)"/>
                    <path id="Line_510" d="M6.358 0L0 2.236" class="cls-11" data-name="Line 510" transform="translate(202.399 67.901)"/>
                    <path id="Line_511" d="M2.944 0L0 6.002" class="cls-11" data-name="Line 511" transform="translate(56.281 197.7)"/>
                    <path id="Line_512" d="M2.944 0L0 6.002" class="cls-11" data-name="Line 512" transform="translate(149.533 4.825)"/>
                    <path id="Line_513" d="M6.005 2.824L0 0" class="cls-11" data-name="Line 513" transform="translate(4.827 56.25)"/>
                    <path id="Line_514" d="M6.005 2.942L0 0" class="cls-11" data-name="Line 514" transform="translate(197.925 149.334)"/>
                </g>
            </g>
            <g id="Group_59" data-name="Group 59" transform="translate(1.06 1.059)">
                <ellipse id="Ellipse_58" cx="103.849" cy="103.793" class="cls-11" data-name="Ellipse 58" rx="103.849" ry="103.793" transform="translate(5.534 5.531)"/>
                <path id="Line_515" d="M.942 6.59L0 0" class="cls-11" data-name="Line 515" transform="translate(93.134)"/>
                <path id="Line_516" d="M.942 6.59L0 0" class="cls-11" data-name="Line 516" transform="translate(124.571 211.939)"/>
                <path id="Line_517" d="M6.594 0L0 .941" class="cls-11" data-name="Line 517" transform="translate(0 124.504)"/>
                <path id="Line_518" d="M6.594 0L0 1.059" class="cls-11" data-name="Line 518" transform="translate(212.054 93.084)"/>
                <path id="Line_519" d="M4.003 0L0 5.413" class="cls-11" data-name="Line 519" transform="translate(43.447 192.64)"/>
                <path id="Line_520" d="M4.003 0L0 5.413" class="cls-11" data-name="Line 520" transform="translate(171.197 20.594)"/>
                <path id="Line_521" d="M5.298 3.883L0 0" class="cls-11" data-name="Line 521" transform="translate(20.605 43.541)"/>
                <path id="Line_522" d="M5.298 4.001L0 0" class="cls-11" data-name="Line 522" transform="translate(192.744 171.105)"/>
                <g id="Group_58" data-name="Group 58" transform="translate(2.355 2.354)">
                    <path id="Line_523" d="M3.415 5.766L0 0" class="cls-11" data-name="Line 523" transform="translate(50.982 11.768)"/>
                    <path id="Line_524" d="M3.415 5.766L0 0" class="cls-11" data-name="Line 524" transform="translate(159.541 196.406)"/>
                    <path id="Line_525" d="M5.769 0L0 3.295" class="cls-11" data-name="Line 525" transform="translate(11.657 159.572)"/>
                    <path id="Line_526" d="M5.769 0L0 3.413" class="cls-11" data-name="Line 526" transform="translate(196.512 50.955)"/>
                    <path id="Line_527" d="M1.648 0L0 6.472" class="cls-11" data-name="Line 527" transform="translate(79.241 207.35)"/>
                    <path id="Line_528" d="M1.766 0L0 6.472" class="cls-11" data-name="Line 528" transform="translate(133.049)"/>
                    <path id="Line_529" d="M6.476 1.648L0 0" class="cls-11" data-name="Line 529" transform="translate(0 79.198)"/>
                    <path id="Line_530" d="M6.476 1.648L0 0" class="cls-11" data-name="Line 530" transform="translate(207.462 133.095)"/>
                </g>
            </g>
            <g id="Group_61" data-name="Group 61">
                <ellipse id="Ellipse_59" cx="103.849" cy="103.793" class="cls-11" data-name="Ellipse 59" rx="103.849" ry="103.793" transform="translate(6.594 6.59)"/>
                <path id="Line_531" d="M.235 6.708L0 0" class="cls-11" data-name="Line 531" transform="translate(105.497)"/>
                <path id="Line_532" d="M.235 6.59L0 0" class="cls-11" data-name="Line 532" transform="translate(115.034 214.058)"/>
                <path id="Line_533" d="M6.711 0L0 .353" class="cls-11" data-name="Line 533" transform="translate(0 114.972)"/>
                <path id="Line_534" d="M6.594 0L0 .235" class="cls-11" data-name="Line 534" transform="translate(214.173 105.44)"/>
                <path id="Line_535" d="M4.474 0L0 4.943" class="cls-11" data-name="Line 535" transform="translate(35.794 186.991)"/>
                <path id="Line_536" d="M4.474 0L0 4.943" class="cls-11" data-name="Line 536" transform="translate(180.499 28.831)"/>
                <path id="Line_537" d="M4.945 4.589L0 0" class="cls-11" data-name="Line 537" transform="translate(28.847 35.774)"/>
                <path id="Line_538" d="M4.945 4.472L0 0" class="cls-11" data-name="Line 538" transform="translate(186.975 180.401)"/>
                <g id="Group_60" data-name="Group 60" transform="translate(6.829 6.825)">
                    <path id="Line_539" d="M2.826 6.119L0 0" class="cls-11" data-name="Line 539" transform="translate(57.576 3.06)"/>
                    <path id="Line_540" d="M2.826 6.002L0 0" class="cls-11" data-name="Line 540" transform="translate(146.707 197.936)"/>
                    <path id="Line_541" d="M6.123 0L0 2.707" class="cls-11" data-name="Line 541" transform="translate(3.061 146.745)"/>
                    <path id="Line_542" d="M6.005 0L0 2.824" class="cls-11" data-name="Line 542" transform="translate(198.043 57.545)"/>
                    <path id="Line_543" d="M2.355 0L0 6.237" class="cls-11" data-name="Line 543" transform="translate(64.994 200.76)"/>
                    <path id="Line_544" d="M2.355 0L0 6.237" class="cls-11" data-name="Line 544" transform="translate(139.76)"/>
                    <path id="Line_545" d="M6.24 2.354L0 0" class="cls-11" data-name="Line 545" transform="translate(0 64.959)"/>
                    <path id="Line_546" d="M6.24 2.236L0 0" class="cls-11" data-name="Line 546" transform="translate(200.868 139.802)"/>
                </g>
            </g>
            <g id="Group_63" data-name="Group 63" transform="translate(1.295 1.294)">
                <ellipse id="Ellipse_60" cx="103.849" cy="103.793" class="cls-11" data-name="Ellipse 60" rx="103.849" ry="103.793" transform="translate(5.298 5.296)"/>
                <path id="Line_547" d="M1.531 6.472L0 0" class="cls-11" data-name="Line 547" transform="translate(82.773 1.765)"/>
                <path id="Line_548" d="M1.531 6.472L0 0" class="cls-11" data-name="Line 548" transform="translate(133.873 209.821)"/>
                <path id="Line_549" d="M6.476 0L0 1.53" class="cls-11" data-name="Line 549" transform="translate(1.766 133.801)"/>
                <path id="Line_550" d="M6.476 0L0 1.648" class="cls-11" data-name="Line 550" transform="translate(209.935 82.728)"/>
                <path id="Line_551" d="M3.532 0L0 5.766" class="cls-11" data-name="Line 551" transform="translate(51.807 197.818)"/>
                <path id="Line_552" d="M3.415 0L0 5.766" class="cls-11" data-name="Line 552" transform="translate(162.955 14.592)"/>
                <path id="Line_553" d="M5.652 3.53L0 0" class="cls-11" data-name="Line 553" transform="translate(14.6 51.779)"/>
                <path id="Line_554" d="M5.652 3.413L0 0" class="cls-11" data-name="Line 554" transform="translate(197.925 162.867)"/>
                <g id="Group_62" data-name="Group 62">
                    <path id="Line_555" d="M3.885 5.413L0 0" class="cls-11" data-name="Line 555" transform="translate(44.507 19.535)"/>
                    <path id="Line_556" d="M4.003 5.413L0 0" class="cls-11" data-name="Line 556" transform="translate(169.785 193.228)"/>
                    <path id="Line_557" d="M5.416 0L0 3.883" class="cls-11" data-name="Line 557" transform="translate(19.427 169.81)"/>
                    <path id="Line_558" d="M5.416 0L0 3.883" class="cls-11" data-name="Line 558" transform="translate(193.333 44.483)"/>
                    <path id="Line_559" d="M1.177 0L0 6.59" class="cls-11" data-name="Line 559" transform="translate(91.368 211.469)"/>
                    <path id="Line_560" d="M1.06 0L0 6.59" class="cls-11" data-name="Line 560" transform="translate(125.749)"/>
                    <path id="Line_561" d="M6.594 1.059L0 0" class="cls-11" data-name="Line 561" transform="translate(0 91.436)"/>
                    <path id="Line_562" d="M6.594 1.059L0 0" class="cls-11" data-name="Line 562" transform="translate(211.583 125.681)"/>
                </g>
            </g>
        </g>
        <path id="Path_361" d="M204.283 213.351L0 0" class="cls-12" data-name="Path 361" transform="translate(1515.098 1189.845)"/>
        <path id="Line_644" d="M0 404.109V0" class="cls-1" data-name="Line 644" transform="translate(1433.855 1140.656)"/>
        <path id="Line_645" d="M0 404.815V0" class="cls-1" data-name="Line 645" transform="translate(1645.556 1109)"/>
        <g id="Group_254" data-name="Group 254" transform="translate(1430.912 1137.713)">
            <ellipse id="Ellipse_61" cx="2.944" cy="2.942" class="cls-13" data-name="Ellipse 61" rx="2.944" ry="2.942"/>
            <ellipse id="Ellipse_62" cx="1.766" cy="1.765" class="cls-13" data-name="Ellipse 62" rx="1.766" ry="1.765" transform="translate(1.177 16.24)"/>
        </g>
        <g id="Group_255" data-name="Group 255" transform="translate(1642.612 1497.104)">
            <ellipse id="Ellipse_63" cx="2.944" cy="2.942" class="cls-13" data-name="Ellipse 63" rx="2.944" ry="2.942" transform="translate(0 13.768)"/>
            <ellipse id="Ellipse_64" cx="1.766" cy="1.765" class="cls-13" data-name="Ellipse 64" rx="1.766" ry="1.765" transform="translate(1.177)"/>
        </g>
        <path id="Line_646" d="M0 0l211.23 217.706" class="cls-14" data-name="Line 646" transform="translate(1433.737 1327.059)"/>
        <ellipse id="Ellipse_107" cx="28.611" cy="28.596" class="cls-15" data-name="Ellipse 107" rx="28.611" ry="28.596" transform="translate(1512.036 1109.236)"/>
        <path id="Path_364" d="M0 435.764L436 0" class="cls-12" data-name="Path 364" transform="translate(1322 1109)"/>
        <path id="Line_647" d="M0 0l436 435.764" class="cls-15" data-name="Line 647" transform="translate(1322 1109)"/>
        <path id="Line_648" d="M212.525 0L0 218.882" class="cls-14" data-name="Line 648" transform="translate(1433.855 1325.882)"/>
        <g id="Group_256" data-name="Group 256" transform="translate(1636.254 1317.409)">
            <ellipse id="Ellipse_66" cx="10.008" cy="10.003" class="cls-16" data-name="Ellipse 66" rx="10.008" ry="10.003"/>
        </g>
        <g id="Group_257" data-name="Group 257" transform="translate(1422.905 1315.997)">
            <ellipse id="Ellipse_67" cx="10.95" cy="10.944" class="cls-10" data-name="Ellipse 67" rx="10.95" ry="10.944"/>
            <ellipse id="Ellipse_68" cx="5.769" cy="5.766" class="cls-17" data-name="Ellipse 68" rx="5.769" ry="5.766" transform="translate(5.181 5.178)"/>
        </g>
        <g id="Group_258" data-name="Group 258" transform="translate(1506.267 1181.02)">
            <ellipse id="Ellipse_69" cx="8.713" cy="8.708" class="cls-10" data-name="Ellipse 69" rx="8.713" ry="8.708"/>
            <ellipse id="Ellipse_70" cx="1.766" cy="1.765" class="cls-13" data-name="Ellipse 70" rx="1.766" ry="1.765" transform="translate(6.947 6.708)"/>
        </g>
        <path id="Path_365" d="M0 0h436v435.764H0z" class="cls-18" data-name="Path 365" transform="translate(1322 1109)"/>
    </g>
</svg>
