<svg xmlns="http://www.w3.org/2000/svg" viewBox="0 0 62 62">
    <defs>
        <style>
            .cls-1{fill:#3a5695}.cls-2{fill:#c01517}
        </style>
    </defs>
    <g id="icon_safe" transform="translate(-14 -1488)">
        <g id="Group_426" data-name="Group 426" transform="translate(14 1488)">
            <path id="Path_476" d="M58 62H4a3.631 3.631 0 0 1-2.8-1.2A4.2 4.2 0 0 1 0 58V4a3.631 3.631 0 0 1 1.2-2.8A3.631 3.631 0 0 1 4 0h54a3.631 3.631 0 0 1 2.8 1.2A3.631 3.631 0 0 1 62 4v54a3.631 3.631 0 0 1-1.2 2.8A4.2 4.2 0 0 1 58 62zM4 2a1.816 1.816 0 0 0-1.4.6A1.816 1.816 0 0 0 2 4v54a1.816 1.816 0 0 0 .6 1.4A1.816 1.816 0 0 0 4 60h54a2.051 2.051 0 0 0 2-2V4a1.816 1.816 0 0 0-.6-1.4A1.816 1.816 0 0 0 58 2z" class="cls-1" data-name="Path 476"/>
            <path id="Path_477" d="M54 54H8v-7a.945.945 0 0 1 1-1 .945.945 0 0 1 1 1v5h42V10H10v5a.945.945 0 0 1-1 1 .945.945 0 0 1-1-1V8h46zM9 40a.945.945 0 0 1-1-1V23a.945.945 0 0 1 1-1 .945.945 0 0 1 1 1v16a.945.945 0 0 1-1 1z" class="cls-1" data-name="Path 477"/>
            <path id="Path_478" d="M33 40a7.973 7.973 0 0 1-3.4-.7 8.374 8.374 0 0 1-2.9-2 11.542 11.542 0 0 1-2-2.9 8.607 8.607 0 0 1 0-6.8 8.373 8.373 0 0 1 2-2.9 9.989 9.989 0 0 1 2.9-2 9.154 9.154 0 0 1 6.9 0 8.374 8.374 0 0 1 2.9 2 9.989 9.989 0 0 1 2 2.9 8.29 8.29 0 0 1 .7 3.4 7.973 7.973 0 0 1-.7 3.4 9.721 9.721 0 0 1-1.9 2.9 9.989 9.989 0 0 1-2.9 2 9.578 9.578 0 0 1-3.6.7zm0-16a8.574 8.574 0 0 0-2.7.5A9.13 9.13 0 0 0 28 26a5.739 5.739 0 0 0-1.5 2.3A8.574 8.574 0 0 0 26 31a8.574 8.574 0 0 0 .5 2.7A7.039 7.039 0 0 0 28 36a5.739 5.739 0 0 0 2.3 1.5 7.205 7.205 0 0 0 5.4 0A9.13 9.13 0 0 0 38 36a5.739 5.739 0 0 0 1.5-2.3A6.461 6.461 0 0 0 40 31a8.574 8.574 0 0 0-.5-2.7A9.13 9.13 0 0 0 38 26a5.739 5.739 0 0 0-2.3-1.5A8.574 8.574 0 0 0 33 24z" class="cls-1" data-name="Path 478"/>
            <path id="Path_479" d="M33 44a.945.945 0 0 1-1-1v-4a1 1 0 1 1 2 0v4a.945.945 0 0 1-1 1zm8.5-3.5a.908.908 0 0 1-.7-.3L38 37.4a.99.99 0 1 1 1.4-1.4l2.8 2.8a.967.967 0 0 1 0 1.4.908.908 0 0 1-.7.3zm-17 0a.908.908 0 0 1-.7-.3.967.967 0 0 1 0-1.4l2.8-2.8a.99.99 0 0 1 1.4 1.4l-2.8 2.8a.908.908 0 0 1-.7.3zM45 32h-4a1 1 0 1 1 0-2h4a1 1 0 1 1 0 2zm-20 0h-4a1 1 0 0 1 0-2h4a1 1 0 0 1 0 2zm13.7-5.7a.908.908 0 0 1-.7-.3.967.967 0 0 1 0-1.4l2.8-2.8a.99.99 0 0 1 1.4 1.4L39.4 26a.908.908 0 0 1-.7.3zm-11.4 0a.908.908 0 0 1-.7-.3l-2.8-2.8a.99.99 0 0 1 1.4-1.4l2.8 2.8a.967.967 0 0 1 0 1.4.908.908 0 0 1-.7.3zM33 24a.945.945 0 0 1-1-1v-4a1 1 0 0 1 2 0v4a.945.945 0 0 1-1 1z" class="cls-2" data-name="Path 479"/>
            <path id="Path_480" d="M12 48H6V38h6zm-4-2h2v-6H8zm4-22H6V14h6zm-4-2h2v-6H8z" class="cls-2" data-name="Path 480"/>
        </g>
    </g>
</svg>
