<svg xmlns="http://www.w3.org/2000/svg" viewBox="0 0 44 44">
    <defs>
        <style>
            .cls-1{fill:#fff}
        </style>
    </defs>
    <g id="icon_phone">
        <path id="Path_504" d="M28.558 44.216c-5.114 0-11.772-3.771-18.333-10.251C6.365 30.1-.1 22.652-.1 15.592A9.6 9.6 0 0 1 6.654 6.6c1.833-.29 3.281 1.451 3.86 2.224l4.053 6.189a3.76 3.76 0 0 1-1.061 5.222v.1c-.868.677-1.544 1.257-1.544 2.127-.1.967.579 2.708 3.86 5.9 3.281 3.288 5.018 3.868 5.982 3.771.868-.1 1.351-.677 2.026-1.547l.193-.193a3.807 3.807 0 0 1 5.211-.967l6.366 4.25a3.907 3.907 0 0 1 2.026 3.675 9.247 9.247 0 0 1-9.068 6.865zM7.137 8.436h-.1A7.675 7.675 0 0 0 1.926 15.5c0 4.642 3.57 10.831 9.746 17.02s12.254 9.67 16.886 9.67a7 7 0 0 0 7.042-5.13c.1-.87-.386-1.257-1.158-1.837l-.193-.193-6.175-4.062a1.95 1.95 0 0 0-2.605.484l-.193.29a4.643 4.643 0 0 1-3.476 2.224c-1.93.1-4.342-1.257-7.43-4.352s-4.531-5.414-4.338-7.446a4.666 4.666 0 0 1 2.316-3.481l.193-.193a1.91 1.91 0 0 0 .579-2.611l-4.053-6c-.579-.77-1.351-1.447-1.93-1.447z" class="cls-1" data-name="Path 504" transform="translate(.1 -.216)"/>
        <path id="Path_505" d="M43.651 24.369a.913.913 0 0 1-.965-.967A21.52 21.52 0 0 0 21.265 1.934.913.913 0 0 1 20.3.967.913.913 0 0 1 21.265 0a23.4 23.4 0 0 1 23.351 23.4 1.039 1.039 0 0 1-.965.969zm-7.044 0a.913.913 0 0 1-.965-.967A14.429 14.429 0 0 0 21.265 8.993a.913.913 0 0 1-.965-.967.913.913 0 0 1 .965-.967A16.367 16.367 0 0 1 37.572 23.4a.968.968 0 0 1-.965.969zm-7.623 0a.913.913 0 0 1-.965-.967 6.782 6.782 0 0 0-6.754-6.769.967.967 0 0 1 0-1.934 8.719 8.719 0 0 1 8.684 8.7 1.039 1.039 0 0 1-.965.97z" class="cls-1" data-name="Path 505" transform="translate(-.616)"/>
    </g>
</svg>
