<svg xmlns="http://www.w3.org/2000/svg" viewBox="0 0 58 58">
    <defs>
        <style>
            .cls-1{fill:#c01517}.cls-2{fill:#3a5695}
        </style>
    </defs>
    <g id="icon_circle" transform="translate(-.016 -.023)">
        <path id="Path_506" d="M52.975 36.351a7.262 7.262 0 0 1-2.514-.484 5.235 5.235 0 0 1-2.127-1.451 8.272 8.272 0 0 1-1.45-2.127 6.78 6.78 0 0 1 0-5.029 5.236 5.236 0 0 1 1.45-2.127 10.353 10.353 0 0 1 2.127-1.451 6.478 6.478 0 0 1 5.028 0 5.235 5.235 0 0 1 2.127 1.451 10.353 10.353 0 0 1 1.45 2.127 6.78 6.78 0 0 1 0 5.029 5.236 5.236 0 0 1-1.45 2.127 8.271 8.271 0 0 1-2.127 1.451 5.562 5.562 0 0 1-2.514.484zm0-11.218a3.54 3.54 0 0 0-1.74.387 5.194 5.194 0 0 0-1.547.967 4.211 4.211 0 0 0-.967 1.547 5.648 5.648 0 0 0-.387 1.741 3.541 3.541 0 0 0 .387 1.741 5.2 5.2 0 0 0 .967 1.547 3.785 3.785 0 0 0 1.547.967 4.593 4.593 0 0 0 3.578 0 5.2 5.2 0 0 0 1.547-.967 4.211 4.211 0 0 0 .967-1.547 5.648 5.648 0 0 0 .387-1.741 3.541 3.541 0 0 0-.387-1.741 5.2 5.2 0 0 0-.967-1.547 4.211 4.211 0 0 0-1.547-.967 4.484 4.484 0 0 0-1.838-.387z" class="cls-1" data-name="Path 506" transform="translate(-1.534 -.763)"/>
        <path id="Path_507" d="M29.008 58.023a29 29 0 1 1 24.56-44.484.979.979 0 1 1-1.643 1.061 27.076 27.076 0 1 0-3.771 33.653.957.957 0 1 1 1.354 1.354 29.146 29.146 0 0 1-20.5 8.416zm-.1-12.862a15.859 15.859 0 0 1-6.281-1.261 16.095 16.095 0 1 1 18.081-25.719.94.94 0 0 1-.1 1.354.869.869 0 0 1-1.354-.1 14.275 14.275 0 0 0-15.471-3.675A14.032 14.032 0 0 0 14.7 28.722a14.194 14.194 0 0 0 24.27 10.251.957.957 0 1 1 1.354 1.354 15.729 15.729 0 0 1-11.412 4.835z" class="cls-2" data-name="Path 507"/>
        <path id="Path_508" d="M29.841 34.584a4.622 4.622 0 1 1 3.288-1.354 4.6 4.6 0 0 1-3.288 1.354zm0-7.446a2.7 2.7 0 0 0-1.934.774 2.483 2.483 0 0 0-.774 1.934 2.7 2.7 0 0 0 .774 1.934 2.483 2.483 0 0 0 1.934.774 2.7 2.7 0 0 0 1.934-.774 2.483 2.483 0 0 0 .774-1.934 2.7 2.7 0 0 0-.774-1.934 2.357 2.357 0 0 0-1.934-.775z" class="cls-2" data-name="Path 508" transform="translate(-.833 -.833)"/>
        <path id="Path_509" d="M49.878 50.847a.878.878 0 0 1-.677-.29L31.99 33.344a.957.957 0 0 1 1.354-1.354L50.555 49.2a.935.935 0 0 1 0 1.354 1.044 1.044 0 0 1-.677.293z" class="cls-2" data-name="Path 509" transform="translate(-1.048 -1.044)"/>
    </g>
</svg>
