<svg xmlns="http://www.w3.org/2000/svg" viewBox="0 0 44 44">
    <defs>
        <style>
            .cls-1{fill:#fff}
        </style>
    </defs>
    <path id="icon_vk" d="M28.46 44H15.54C3.183 44 0 40.817 0 28.46V15.54C0 3.183 3.183 0 15.54 0h12.92C40.817 0 44 3.183 44 15.54v12.92C44 40.723 40.817 44 28.46 44zM15.54 1.872C4.306 1.872 1.872 4.306 1.872 15.54v12.92c0 11.234 2.434 13.668 13.668 13.668h12.92c11.234 0 13.668-2.434 13.668-13.668V15.54c0-11.234-2.434-13.668-13.668-13.668zm19.379 30.051H31.83c-1.217 0-1.872-.749-2.809-1.779-.374-.374-.843-.936-1.4-1.5a6.212 6.212 0 0 0-2.247-1.685v2.9c0 2.153-2.153 2.153-3.089 2.153-3.745 0-7.489-2.247-10.111-5.991-3.745-5.243-5.055-9.549-5.055-10.672a1.728 1.728 0 0 1 1.966-1.779h3.085c1.4 0 1.872.843 2.247 1.779a21.956 21.956 0 0 0 3.838 7.209v-4.303a2.855 2.855 0 0 0-.655-1.685 1.9 1.9 0 0 1-.562-1.311 1.6 1.6 0 0 1 1.685-1.591h4.868c.655 0 1.779.281 1.779 2.06v5.617l.281-.281a23.411 23.411 0 0 0 3.557-5.991 2.349 2.349 0 0 1 2.247-1.5h3.089a1.81 1.81 0 0 1 1.591.655 1.835 1.835 0 0 1 .187 1.685c-.374 1.872-3.838 6.74-4.213 7.3a.327.327 0 0 0-.094.187l.094.094c.187.187.468.562.749.843a17.972 17.972 0 0 1 1.311 1.4c1.685 1.872 2.434 3 2.715 3.932a1.982 1.982 0 0 1-.187 1.779 4.166 4.166 0 0 1-1.778.475zM25.183 25c.655 0 1.685.281 3.651 2.247.655.655 1.123 1.217 1.5 1.591.843.936 1.03 1.123 1.4 1.123h3.277v-.094a15.358 15.358 0 0 0-2.434-3.277 14.917 14.917 0 0 0-1.217-1.217 4.4 4.4 0 0 1-.936-1.03 1.826 1.826 0 0 1 0-2.434c1.4-1.966 3.745-5.523 4.026-6.74h-3.088a.432.432 0 0 0-.468.281A29.686 29.686 0 0 1 26.962 22a2.87 2.87 0 0 1-2.153 1.217c-.655 0-1.4-.562-1.4-1.779v-6.272H19a4.384 4.384 0 0 1 1.03 2.715v4.587c0 .562 0 2.06-1.5 2.06-1.966 0-4.774-5.243-5.991-8.8-.187-.562-.187-.562-.468-.562H8.987c.094.843 1.123 4.494 4.681 9.549 2.247 3.277 5.523 5.243 8.613 5.243a6.842 6.842 0 0 0 1.217-.094v-2.9A1.666 1.666 0 0 1 25.183 25zm-6.46-2.247zm6.647-1.03z" class="cls-1"/>
</svg>
