<svg xmlns="http://www.w3.org/2000/svg" viewBox="0 0 44 36">
    <defs>
        <style>
            .cls-1{fill:#fff}
        </style>
    </defs>
    <path id="icon_tw" d="M14.25 36.1A25.107 25.107 0 0 1 .492 31.969a1.13 1.13 0 0 1-.392-1.18.99.99 0 0 1 1.08-.589 11.881 11.881 0 0 0 1.867.1 16.474 16.474 0 0 0 8.058-2.164 9.523 9.523 0 0 1-6.387-6.3 1.212 1.212 0 0 1 .2-.984.594.594 0 0 1 .59-.3 9.646 9.646 0 0 1-3.832-7.672 1.033 1.033 0 0 1 .487-.88 1.162 1.162 0 0 1 .983-.1c.1 0 .2.1.295.1A7.993 7.993 0 0 1 1.77 6.887a9.323 9.323 0 0 1 1.277-4.82 1 1 0 0 1 .786-.492 1.067 1.067 0 0 1 .884.393 23.6 23.6 0 0 0 15.919 8.557v-.884a9.52 9.52 0 0 1 16.117-6.885A14.711 14.711 0 0 0 41.372.887a.88.88 0 0 1 1.081.1.932.932 0 0 1 .295 1.082 10.324 10.324 0 0 1-1.376 2.754 11.014 11.014 0 0 0 1.277-.492.937.937 0 0 1 1.179.3 1.032 1.032 0 0 1 .1 1.18 17.284 17.284 0 0 1-4.128 4.322v.59C39.7 23.116 30.169 36.1 14.25 36.1zm-9.335-3.836a23.371 23.371 0 0 0 9.335 1.967c14.74 0 23.486-12 23.486-23.607v-.983a1.006 1.006 0 0 1 .393-.984 16.041 16.041 0 0 0 1.965-1.672 13.553 13.553 0 0 1-1.965.3.956.956 0 0 1-1.081-.689 1.13 1.13 0 0 1 .393-1.18 8.059 8.059 0 0 0 1.965-1.672 16.8 16.8 0 0 1-2.948.885.99.99 0 0 1-.884-.3 7.485 7.485 0 0 0-5.5-2.361A7.573 7.573 0 0 0 22.5 9.543a13.834 13.834 0 0 0 .2 1.77 1 1 0 0 1-.2.885 1.213 1.213 0 0 1-.786.393A25.846 25.846 0 0 1 4.128 4.33a8.111 8.111 0 0 0-.393 2.557 7.881 7.881 0 0 0 3.341 6.393.934.934 0 0 1 .393 1.082.976.976 0 0 1-.983.689 8.518 8.518 0 0 1-2.752-.492 7.677 7.677 0 0 0 5.994 6 .958.958 0 0 1 .786.984.977.977 0 0 1-.688.984 10.95 10.95 0 0 1-2.653.3 7.324 7.324 0 0 0 6.486 3.836.944.944 0 0 1 .884.689 1.111 1.111 0 0 1-.295 1.082 17.9 17.9 0 0 1-9.333 3.83z" class="cls-1" transform="translate(-.064 -.099)"/>
</svg>
