<svg xmlns="http://www.w3.org/2000/svg" viewBox="0 0 42.357 42">
    <defs>
        <style>
            .cls-1{fill:none;stroke:#686c7c;stroke-linecap:round;stroke-width:2px}
        </style>
    </defs>
    <g id="icon_settings" data-name="icon settings" transform="translate(-125 -979)">
        <ellipse id="layer2" cx="15.333" cy="5.333" class="cls-1" rx="15.333" ry="5.333" transform="translate(126 980)"/>
        <path id="layer2-2" d="M32.667 24.667V10m0 8c0 2.933-6.867 5.333-15.333 5.333S2 20.933 2 18m20.6 13a42.2 42.2 0 0 1-5.267.333C8.867 31.333 2 28.933 2 26" class="cls-1" data-name="layer2" transform="translate(124 975.333)"/>
        <path id="layer2-3" d="M22.733 39a42.132 42.132 0 0 1-5.4.333C8.867 39.333 2 36.933 2 34V10" class="cls-1" data-name="layer2" transform="translate(124 975.333)"/>
        <ellipse id="layer1" cx="3.333" cy="3.333" class="cls-1" rx="3.333" ry="3.333" transform="translate(152.533 1006.667)"/>
        <path id="layer1-2" d="M51.9 44.667l-2.267-1.333a8.117 8.117 0 0 0 0-2.933l2.067-1.068-2.667-4.6-2.067 1.2a8 8 0 0 0-2.467-1.4V32h-5.332v2.467a8 8 0 0 0-2.467 1.4l-2.133-1.2-2.667 4.666 2 1.133A7.8 7.8 0 0 0 33.767 42a7.933 7.933 0 0 0 .133 1.4l-2.2 1.267 2.667 4.6 2.2-1.2a8 8 0 0 0 2.533 1.466V52h5.333v-2.467a8.067 8.067 0 0 0 2.6-1.533l2.2 1.333z" class="cls-1" data-name="layer1" transform="translate(114.1 968)"/>
    </g>
</svg>
