<svg xmlns="http://www.w3.org/2000/svg" viewBox="0 0 41 62">
    <defs>
        <style>
            .cls-1{fill:#3a5695}.cls-2{fill:#c01517}
        </style>
    </defs>
    <g id="icon_lock" transform="translate(-798 -2354)">
        <g id="Group_424" data-name="Group 424" transform="translate(798 2354)">
            <path id="Path_467" d="M33.483 26.8a.936.936 0 0 1-.981-1V14a11.922 11.922 0 0 0-11.77-12 11.922 11.922 0 0 0-11.77 12v11.8a.936.936 0 0 1-.981 1 .936.936 0 0 1-.981-1V14A13.909 13.909 0 0 1 20.732 0a13.909 13.909 0 0 1 13.732 14v11.8a.936.936 0 0 1-.981 1z" class="cls-1" data-name="Path 467" transform="translate(-.134)"/>
            <path id="Path_468" d="M29.636 24.1a.936.936 0 0 1-.981-1V14a7.848 7.848 0 1 0-15.694 0v9.1a.981.981 0 1 1-1.961 0V14a9.935 9.935 0 0 1 9.809-10 9.935 9.935 0 0 1 9.809 10v9.1a.936.936 0 0 1-.982 1z" class="cls-1" data-name="Path 468" transform="translate(-.211)"/>
            <path id="Path_469" d="M20.6 62a17.717 17.717 0 0 1-4.022-.4 24.373 24.373 0 0 1-3.825-1.2 19.965 19.965 0 0 1-3.533-1.9 25.6 25.6 0 0 1-3.139-2.6 20.124 20.124 0 0 1-2.55-3.2 17.882 17.882 0 0 1-1.864-3.6A29.487 29.487 0 0 1 .49 45.2 15.366 15.366 0 0 1 0 41a18.75 18.75 0 0 1 .392-4.1A25.567 25.567 0 0 1 1.569 33a20.625 20.625 0 0 1 1.864-3.6 25.909 25.909 0 0 1 2.55-3.2 19.887 19.887 0 0 1 3.139-2.6 17.309 17.309 0 0 1 3.531-1.9 28.108 28.108 0 0 1 3.825-1.2 21.751 21.751 0 0 1 8.043 0 24.373 24.373 0 0 1 3.825 1.2 19.965 19.965 0 0 1 3.531 1.9 25.6 25.6 0 0 1 3.139 2.6 20.123 20.123 0 0 1 2.55 3.2 17.882 17.882 0 0 1 1.865 3.6 29.486 29.486 0 0 1 1.177 3.9A18.75 18.75 0 0 1 41 41a18.75 18.75 0 0 1-.392 4.1 25.567 25.567 0 0 1-1.177 3.9 20.626 20.626 0 0 1-1.864 3.6 25.91 25.91 0 0 1-2.55 3.2 19.887 19.887 0 0 1-3.139 2.6 17.308 17.308 0 0 1-3.531 1.9 28.109 28.109 0 0 1-3.825 1.2 12.438 12.438 0 0 1-3.922.5zm0-40a14.957 14.957 0 0 0-3.629.4 15.967 15.967 0 0 0-3.531 1.1 20.6 20.6 0 0 0-3.24 1.8 21.4 21.4 0 0 0-2.844 2.4A16.759 16.759 0 0 0 5 30.6a17.511 17.511 0 0 0-1.766 3.3 19.223 19.223 0 0 0-1.079 3.6c-.1 1-.2 2.3-.2 3.5a15.825 15.825 0 0 0 .392 3.7 16.751 16.751 0 0 0 1.079 3.6A21.25 21.25 0 0 0 5.2 51.6a21.635 21.635 0 0 0 2.354 2.9 16.579 16.579 0 0 0 2.846 2.4 16.973 16.973 0 0 0 3.237 1.8 18.324 18.324 0 0 0 3.531 1.1 17.749 17.749 0 0 0 7.258 0 15.967 15.967 0 0 0 3.531-1.1 16.973 16.973 0 0 0 3.237-1.8 21.4 21.4 0 0 0 2.845-2.4 16.758 16.758 0 0 0 2.354-2.9 17.511 17.511 0 0 0 1.766-3.3 19.222 19.222 0 0 0 1.079-3.6 23.692 23.692 0 0 0 .392-3.7 15.824 15.824 0 0 0-.392-3.7 16.751 16.751 0 0 0-1.079-3.6 17.511 17.511 0 0 0-1.766-3.3 21.636 21.636 0 0 0-2.354-2.9 16.579 16.579 0 0 0-2.844-2.4 20.6 20.6 0 0 0-3.237-1.8 18.325 18.325 0 0 0-3.531-1.1c-1.377-.1-2.652-.2-3.827-.2z" class="cls-1" data-name="Path 469"/>
            <path id="Path_470" d="M20.828 50a7.693 7.693 0 0 1-3.335-.7 8.211 8.211 0 0 1-2.844-2 11.552 11.552 0 0 1-1.962-2.9 8.762 8.762 0 0 1 0-6.8 8.379 8.379 0 0 1 1.962-2.9 9.8 9.8 0 0 1 2.844-2 8.82 8.82 0 0 1 6.768 0 9.521 9.521 0 0 1 2.844 1.9 10 10 0 0 1 1.962 2.9 8.762 8.762 0 0 1 0 6.8 9.007 9.007 0 0 1-4.708 4.9 7.843 7.843 0 0 1-3.531.8zm0-16a8.267 8.267 0 0 0-2.648.5 8.941 8.941 0 0 0-2.257 1.5 5.751 5.751 0 0 0-1.471 2.3 7.677 7.677 0 0 0 0 5.4 7.053 7.053 0 0 0 1.471 2.3 5.62 5.62 0 0 0 2.256 1.5 6.942 6.942 0 0 0 5.3 0 8.941 8.941 0 0 0 2.253-1.5 5.751 5.751 0 0 0 1.468-2.3 6.573 6.573 0 0 0 .49-2.7 8.723 8.723 0 0 0-.49-2.7 9.15 9.15 0 0 0-1.468-2.3 5.62 5.62 0 0 0-2.256-1.5 8.267 8.267 0 0 0-2.648-.5z" class="cls-2" data-name="Path 470" transform="translate(-.23)"/>
            <path id="Path_471" d="M20.713 56a.936.936 0 0 1-.981-1v-6a.981.981 0 1 1 1.962 0v6a.936.936 0 0 1-.981 1zm13.732-14H28.56a1 1 0 0 1 0-2h5.885a1 1 0 0 1 0 2zm-21.579 0H6.981a1 1 0 0 1 0-2h5.885a1 1 0 0 1 0 2zm7.847-8a.936.936 0 0 1-.981-1v-6a.981.981 0 1 1 1.962 0v6a.936.936 0 0 1-.981 1z" class="cls-2" data-name="Path 471" transform="translate(-.115)"/>
        </g>
    </g>
</svg>
