<svg xmlns="http://www.w3.org/2000/svg" viewBox="0 0 62 62">
    <defs>
        <style>
            .cls-1{fill:#c01517}.cls-2{fill:#3a5695}
        </style>
    </defs>
    <g id="icon_game" transform="translate(-1301 -2769)">
        <path id="Path_446" d="M43 54a3.632 3.632 0 0 1-2.8-1.2A4.2 4.2 0 0 1 39 50a3.631 3.631 0 0 1 1.2-2.8A4.206 4.206 0 0 1 43 46a3.632 3.632 0 0 1 2.8 1.2A4.2 4.2 0 0 1 47 50a3.631 3.631 0 0 1-1.2 2.8A4.206 4.206 0 0 1 43 54zm0-6a2.051 2.051 0 1 0 1.4.6A1.816 1.816 0 0 0 43 48z" class="cls-1" data-name="Path 446" transform="translate(1301.001 2769)"/>
        <path id="Path_447" d="M53 50a3.632 3.632 0 0 1-2.8-1.2A4.2 4.2 0 0 1 49 46a3.631 3.631 0 0 1 1.2-2.8A4.206 4.206 0 0 1 53 42a3.632 3.632 0 0 1 2.8 1.2A4.2 4.2 0 0 1 57 46a3.631 3.631 0 0 1-1.2 2.8A4.206 4.206 0 0 1 53 50zm0-6a2.051 2.051 0 1 0 1.4.6A1.816 1.816 0 0 0 53 44z" class="cls-1" data-name="Path 447" transform="translate(1301.003 2769)"/>
        <path id="Path_448" d="M15 54a.945.945 0 0 1-1-1v-5H9a1 1 0 1 1 0-2h5v-5a1 1 0 0 1 2 0v5h5a1 1 0 1 1 0 2h-5v5a1 1 0 0 1-1 1z" class="cls-1" data-name="Path 448" transform="translate(1300.996 2769)"/>
        <path id="Path_449" d="M47.008 62a14.783 14.783 0 0 1-12-6H27a15.081 15.081 0 0 1-17.9 4.8A15.139 15.139 0 0 1 .3 44 14.991 14.991 0 0 1 15 32h15v-6a10.03 10.03 0 0 1 10-10h5a6.958 6.958 0 0 0 7-7V1a1 1 0 0 1 2 0v8a8.963 8.963 0 0 1-9 9h-5a8.024 8.024 0 0 0-8 8v6h15a15 15 0 0 1 5.9 28.8 15.186 15.186 0 0 1-5.892 1.2zM26 54h10l.3.4A13 13 0 1 0 47.008 34H15A12.966 12.966 0 0 0 2.3 44.4 13.242 13.242 0 0 0 9.9 59a13.141 13.141 0 0 0 15.8-4.5z" class="cls-2" data-name="Path 449" transform="translate(1300.994 2769)"/>
        <path id="Path_450" d="M27 43a2 2 0 1 1 2-2 1.89 1.89 0 0 1-2 2zm0-1.9zm0-.1zm0-.1z" class="cls-2" data-name="Path 450" transform="translate(1300.999 2769)"/>
        <path id="Path_451" d="M35 43a2 2 0 1 1 2-2 1.89 1.89 0 0 1-2 2zm.1-2zm-.1 0zm.1 0z" class="cls-2" data-name="Path 451" transform="translate(1301 2769)"/>
    </g>
</svg>
