<svg xmlns="http://www.w3.org/2000/svg" viewBox="0 0 42 36.667">
    <defs>
        <style>
            .cls-1{fill:none;stroke:#686c7c;stroke-linecap:round;stroke-width:2px}
        </style>
    </defs>
    <g id="icon_grid" data-name="icon grid" transform="translate(-756 -981)">
        <path id="layer1" d="M2 6h40v8H2zm0 8v26.667h40V14" class="cls-1" transform="translate(755 976)"/>
        <path id="layer2" d="M12 26h5.333v5.333H12zm10.667 0H28v5.333h-5.333zm10.667 0h5.333v5.333h-5.334zM12 36.667h5.333V42H12zm10.667 0H28V42h-5.333zm10.667 0h5.333V42h-5.334z" class="cls-1" transform="translate(751.667 969.333)"/>
        <circle id="layer1-2" cx=".667" cy=".667" r=".667" class="cls-1" data-name="layer1" transform="translate(760.333 985.333)"/>
        <circle id="layer1-3" cx=".667" cy=".667" r=".667" class="cls-1" data-name="layer1" transform="translate(765 985.333)"/>
        <circle id="layer1-4" cx=".667" cy=".667" r=".667" class="cls-1" data-name="layer1" transform="translate(769.667 985.333)"/>
    </g>
</svg>
