<svg xmlns="http://www.w3.org/2000/svg" id="icon_window" viewBox="0 0 58 50">
    <defs>
        <style>
            .cls-1{fill:#3a5695}.cls-2{fill:#c01517}
        </style>
    </defs>
    <path id="Path_532" d="M6.721 8.624A1.81 1.81 0 0 1 4.8 6.712 1.81 1.81 0 0 1 6.721 4.8a1.81 1.81 0 0 1 1.92 1.912 1.81 1.81 0 0 1-1.92 1.912zm0-1.816zm-.1-.1z" class="cls-1" data-name="Path 532" transform="translate(-.191 -.211)"/>
    <path id="Path_533" d="M13.521 8.624A1.81 1.81 0 0 1 11.6 6.712 1.81 1.81 0 0 1 13.521 4.8a1.81 1.81 0 0 1 1.921 1.912 1.863 1.863 0 0 1-1.921 1.912zm0-1.816zm-.1-.1z" class="cls-1" data-name="Path 533" transform="translate(-.461 -.211)"/>
    <path id="Path_534" d="M20.221 8.624A1.81 1.81 0 0 1 18.3 6.712 1.81 1.81 0 0 1 20.221 4.8a1.81 1.81 0 0 1 1.921 1.912 1.81 1.81 0 0 1-1.921 1.912zm.1-1.816zm-.192-.1z" class="cls-1" data-name="Path 534" transform="translate(-.727 -.211)"/>
    <path id="Path_535" d="M29.768 42.543H0V0h50.222v25.908a.96.96 0 0 1-1.921 0V13H1.921v27.631h27.847a.905.905 0 0 1 .96.956.96.96 0 0 1-.96.956zM1.921 11.09H48.3V1.912H1.921z" class="cls-1" data-name="Path 535"/>
    <path id="Path_536" d="M44.27 42.088a5.188 5.188 0 0 1-2.113-.382 5.985 5.985 0 0 1-3.073-3.059 5.428 5.428 0 0 1-.384-2.1 5.125 5.125 0 0 1 .384-2.1 5.618 5.618 0 0 1 9.216-1.824 6.123 6.123 0 0 1 1.248 1.816 5.428 5.428 0 0 1 .384 2.1 5.125 5.125 0 0 1-.384 2.1 5.6 5.6 0 0 1-1.248 1.823 6.152 6.152 0 0 1-1.825 1.243 5.978 5.978 0 0 1-2.205.383zm0-9.273a3.868 3.868 0 0 0-1.44.287 3.454 3.454 0 0 0-1.152.765 4.8 4.8 0 0 0-.768 1.147 3.713 3.713 0 0 0 0 2.868 3.437 3.437 0 0 0 .768 1.147 4.827 4.827 0 0 0 1.152.765 3.523 3.523 0 0 0 2.785 0 3.454 3.454 0 0 0 1.152-.765 4 4 0 0 0 .768-1.147 3.713 3.713 0 0 0 0-2.868 3.437 3.437 0 0 0-.768-1.147 4.019 4.019 0 0 0-1.152-.765 3.079 3.079 0 0 0-1.345-.288z" class="cls-2" data-name="Path 536" transform="translate(-1.538 -1.361)"/>
    <path id="Path_537" d="M48.562 50.937h-9.315v-3.92a9.925 9.925 0 0 1-2.881-1.338L33.005 47.5 28.3 39.464l3.361-1.912a7.2 7.2 0 0 1-.1-1.434 9.235 9.235 0 0 1 .1-1.625l-3.073-1.721 4.705-8.126 3.169 1.816a7.331 7.331 0 0 1 2.785-1.243V21.3h9.315v3.824a6.86 6.86 0 0 1 2.5 1.434l3.169-1.816 4.705 8.031-3.268 1.627a9.235 9.235 0 0 1 .1 1.625 7.2 7.2 0 0 1-.1 1.434l3.457 2.008-4.705 8.126-3.361-2.008a7.142 7.142 0 0 1-2.593 1.434v3.92zm-7.49-1.912h5.474V45.3h.96a6.222 6.222 0 0 0 2.785-1.625l.48-.478 2.785 1.721 2.785-4.78-2.881-1.721.1-.669a10.544 10.544 0 0 0 .192-1.816 11.719 11.719 0 0 0-.192-1.912l-.1-.669 2.593-1.338-2.689-4.685-2.593 1.53-.48-.382a5.524 5.524 0 0 0-2.689-1.53h-.96v-3.734h-5.474v3.537l-.768.1a6.813 6.813 0 0 0-3.169 1.434l-.576.478-2.593-1.53-2.785 4.78 2.5 1.434-.1.669a12.9 12.9 0 0 0-.192 1.912 11.664 11.664 0 0 0 .192 1.816l.1.669-2.785 1.625 2.785 4.78 2.785-1.53.48.478a6.873 6.873 0 0 0 3.265 1.53l.768.1v3.537z" class="cls-2" data-name="Path 537" transform="translate(-1.125 -.937)"/>
</svg>
