<svg xmlns="http://www.w3.org/2000/svg" viewBox="0 0 31 44">
    <defs>
        <style>
            .cls-1{fill:#fff}
        </style>
    </defs>
    <g id="icon_position">
        <path id="Path_497" d="M15.5 44a.905.905 0 0 1-.691-.29C14.217 43.033 0 28.237 0 15.182A15.433 15.433 0 0 1 15.5 0 15.369 15.369 0 0 1 31 15.182c0 13.055-14.217 27.851-14.809 28.431A.663.663 0 0 1 15.5 44zm0-42.066A13.473 13.473 0 0 0 1.975 15.182c0 10.637 10.662 23.112 13.525 26.3 2.863-3.191 13.525-15.666 13.525-26.3A13.346 13.346 0 0 0 15.5 1.934z" class="cls-1" data-name="Path 497"/>
        <path id="Path_498" d="M15.613 22.151a7.552 7.552 0 0 1-2.567-.484 6.546 6.546 0 0 1-2.172-1.451 8.267 8.267 0 0 1-1.481-2.127 7.133 7.133 0 0 1-.493-2.514 7.133 7.133 0 0 1 .494-2.514 6.4 6.4 0 0 1 1.481-2.127 8.455 8.455 0 0 1 2.172-1.451 7 7 0 0 1 5.232 0 6.546 6.546 0 0 1 2.172 1.451 8.267 8.267 0 0 1 1.481 2.127 7.133 7.133 0 0 1 .494 2.514 7.133 7.133 0 0 1-.494 2.514 6.4 6.4 0 0 1-1.481 2.127 8.455 8.455 0 0 1-2.172 1.451 8.622 8.622 0 0 1-2.666.484zm0-11.411a4.355 4.355 0 0 0-1.876.387 4.139 4.139 0 0 0-1.58 1.064 5.524 5.524 0 0 0-1.086 1.547 5.555 5.555 0 0 0-.395 1.837 4.118 4.118 0 0 0 .395 1.837 4.048 4.048 0 0 0 1.086 1.547 5.648 5.648 0 0 0 1.58 1.064 4.779 4.779 0 0 0 3.653 0 4.139 4.139 0 0 0 1.58-1.064 5.525 5.525 0 0 0 1.086-1.547 5.555 5.555 0 0 0 .395-1.837 4.118 4.118 0 0 0-.395-1.837 4.048 4.048 0 0 0-1.086-1.548 5.648 5.648 0 0 0-1.58-1.064 4.8 4.8 0 0 0-1.777-.386z" class="cls-1" data-name="Path 498" transform="translate(-.113 -.296)"/>
    </g>
</svg>
