<svg xmlns="http://www.w3.org/2000/svg" id="icon_hand" viewBox="0 0 58 54">
    <defs>
        <style>
            .cls-1{fill:#3a5695}.cls-2{fill:#c01517}
        </style>
    </defs>
    <path id="Path_510" d="M16.433 8.643A1.821 1.821 0 0 1 14.5 6.722 1.821 1.821 0 0 1 16.433 4.8a1.821 1.821 0 0 1 1.933 1.922 1.874 1.874 0 0 1-1.933 1.921zm-.193-1.921zm.29 0zm-.193-.1z" class="cls-1" data-name="Path 510" transform="translate(-.483 -.188)"/>
    <path id="Path_511" d="M23.133 8.643A1.821 1.821 0 0 1 21.2 6.722a1.933 1.933 0 0 1 3.867 0 1.821 1.821 0 0 1-1.934 1.921zm-.1-1.922zm.193 0zm-.1-.1z" class="cls-1" data-name="Path 511" transform="translate(-.707 -.188)"/>
    <path id="Path_512" d="M29.933 8.643A1.821 1.821 0 0 1 28 6.722a1.933 1.933 0 0 1 3.867 0 1.821 1.821 0 0 1-1.934 1.921zm.1-1.922z" class="cls-1" data-name="Path 512" transform="translate(-.933 -.188)"/>
    <path id="Path_513" d="M58.323 40.932H36.767a.961.961 0 1 1 0-1.922H56.39V13.068H11.633v23.156a.911.911 0 0 1-.967.961.911.911 0 0 1-.967-.961V0h48.624zm-46.69-29.786H56.39V1.922H11.633z" class="cls-1" data-name="Path 513" transform="translate(-.323)"/>
    <path id="Path_514" d="M55.1 55.341H21.557c-2.127 0-4.06-.961-5.993-1.922a14.3 14.3 0 0 0-4.157-1.633v3.651H0V36.7h11.31v13.068a16 16 0 0 1 5.027 1.922c1.837.865 3.577 1.73 5.123 1.73H55.1a1.711 1.711 0 0 0 .967-1.345c0-.384-.87-4.132-19.623-4.132-9.087 0-13.34-1.826-13.437-1.922a.951.951 0 0 1-.483-1.249.961.961 0 0 1 1.257-.48s4.06 1.73 12.663 1.73c7.637 0 13.34.577 16.917 1.826C57.227 49.1 58 50.921 58 52.17a3.239 3.239 0 0 1-2.9 3.171zM1.933 53.419h7.444v-14.8H1.933z" class="cls-2" data-name="Path 514" transform="translate(0 -1.437)"/>
    <path id="Path_515" d="M38.6 47.942a.911.911 0 0 1-.967-.961v-.961c0-6.63-11.117-7.4-15.853-7.4a18.864 18.864 0 0 0-6.477 1.057 17.291 17.291 0 0 1-4.64.865.961.961 0 1 1 0-1.922 15.133 15.133 0 0 0 4.157-.769 24.32 24.32 0 0 1 7.06-1.151c6.67 0 17.787 1.249 17.787 9.32v.961a1.133 1.133 0 0 1-1.067.961z" class="cls-2" data-name="Path 515" transform="translate(-.323 -1.437)"/>
</svg>
