<svg xmlns="http://www.w3.org/2000/svg" viewBox="0 0 62 62">
    <defs>
        <style>
            .cls-1{fill:#3a5695}
        </style>
    </defs>
    <path id="icon_puzzle" d="M45.989 62h-9a3.831 3.831 0 0 1-3.8-2.2 4.929 4.929 0 0 1 1.1-5 5 5 0 1 0-8.3-3.8 4.8 4.8 0 0 0 1.7 3.7 5.108 5.108 0 0 1 1.1 5.1 3.831 3.831 0 0 1-3.8 2.2H0V37a3.832 3.832 0 0 1 2.2-3.8 4.927 4.927 0 0 1 5 1.1 5 5 0 0 0 8.6-4.5A4.824 4.824 0 0 0 11 26a4.653 4.653 0 0 0-3.7 1.7 5.105 5.105 0 0 1-5.1 1.1A3.832 3.832 0 0 1 0 25v-9h17c1.5 0 1.8-.7 1.9-.9a3.005 3.005 0 0 0-.6-2.9 6.939 6.939 0 0 1-1.8-7.7 6.956 6.956 0 1 1 11.1 7.7A2.821 2.821 0 0 0 27 15c.1.2.4.9 1.9.9h17v21c0 1.5.7 1.8.9 1.9a3 3 0 0 0 2.9-.6A7.49 7.49 0 0 1 55 36a7.01 7.01 0 1 1-5.2 11.7 2.819 2.819 0 0 0-2.8-.6c-.3 0-1 .3-1 1.9zm-15-18a6.957 6.957 0 0 1 6.2 3.7 7.036 7.036 0 0 1-1.5 8.5 2.821 2.821 0 0 0-.6 2.8c.1.2.4.9 1.9.9h7V49a3.832 3.832 0 0 1 2.2-3.8 4.927 4.927 0 0 1 5 1.1 5 5 0 1 0 3.8-8.3 4.8 4.8 0 0 0-3.7 1.7 5.105 5.105 0 0 1-5.1 1.1 3.832 3.832 0 0 1-2.2-3.8V18h-15a3.831 3.831 0 0 1-3.8-2.2 4.929 4.929 0 0 1 1.1-5 5.006 5.006 0 0 0 1.4-5.5 5.057 5.057 0 0 0-4.7-3.3 5.112 5.112 0 0 0-4.7 3.2 5.143 5.143 0 0 0 1.3 5.5 5.108 5.108 0 0 1 1.1 5.1c-.3.8-1.2 2.2-3.7 2.2H2v7c0 1.5.7 1.8.9 1.9a3 3 0 0 0 2.9-.6A6.5 6.5 0 0 1 11 24a7.01 7.01 0 1 1-5.2 11.7 2.819 2.819 0 0 0-2.8-.6c-.3 0-1 .3-1 1.9v23h22.994c1.5 0 1.8-.7 1.9-.9a3.005 3.005 0 0 0-.6-2.9 6.823 6.823 0 0 1-2.3-5.2 7.055 7.055 0 0 1 5.3-6.8 11.13 11.13 0 0 1 1.699-.2z" class="cls-1"/>
</svg>
