<svg xmlns="http://www.w3.org/2000/svg" id="icon_globe" viewBox="0 0 49 58">
    <defs>
        <style>
            .cls-1{fill:#3a5695}.cls-2{fill:#c01517}
        </style>
    </defs>
    <path id="Path_522" d="M38.674 58h-22.6a.967.967 0 1 1 0-1.933H26.4v-7.444A26.7 26.7 0 0 1 8.085 40.7 26.428 26.428 0 0 1 0 21.557 27.34 27.34 0 0 1 7.306 3L5.942 1.643a.929.929 0 0 1 0-1.353.947.947 0 0 1 1.364 0l2.046 2.03 5.358 5.317a.93.93 0 0 1 0 1.353.947.947 0 0 1-1.364 0L8.67 4.447A25.149 25.149 0 0 0 27.276 46.69h.1a25.817 25.817 0 0 0 17.243-6.67l-4.679-4.64a.93.93 0 0 1 0-1.353.947.947 0 0 1 1.364 0l7.4 7.347a.929.929 0 0 1 0 1.353.947.947 0 0 1-1.364 0l-1.36-1.354a27.2 27.2 0 0 1-17.632 7.25v7.443h10.326a.917.917 0 0 1 .974.967.973.973 0 0 1-.974.967z" class="cls-1" data-name="Path 522"/>
    <path id="Path_523" d="M27.573 41.241a17.764 17.764 0 0 1-3.9-.387 16.458 16.458 0 0 1-3.7-1.16 16.636 16.636 0 0 1-3.41-1.837 23.58 23.58 0 0 1-3.02-2.417 14.318 14.318 0 0 1-2.435-3 22.853 22.853 0 0 1-1.851-3.383 23.081 23.081 0 0 1-1.167-3.67 16.809 16.809 0 0 1-.39-3.867 17.368 17.368 0 0 1 .39-3.867 16.15 16.15 0 0 1 1.169-3.673 16.428 16.428 0 0 1 1.851-3.38 23.465 23.465 0 0 1 2.435-3 14.388 14.388 0 0 1 3.02-2.417 23.142 23.142 0 0 1 3.41-1.837 23.522 23.522 0 0 1 3.7-1.16 20.6 20.6 0 0 1 7.7 0 16.458 16.458 0 0 1 3.7 1.16 16.636 16.636 0 0 1 3.41 1.837A23.581 23.581 0 0 1 41.5 7.6a18.249 18.249 0 0 1 2.435 3 22.853 22.853 0 0 1 1.851 3.383 23.081 23.081 0 0 1 1.169 3.673 16.809 16.809 0 0 1 .39 3.867 17.367 17.367 0 0 1-.39 3.867 16.15 16.15 0 0 1-1.169 3.673 16.428 16.428 0 0 1-1.851 3.383 23.466 23.466 0 0 1-2.435 3 18.338 18.338 0 0 1-3.02 2.417 23.143 23.143 0 0 1-3.41 1.837 23.522 23.522 0 0 1-3.7 1.16 16.9 16.9 0 0 1-3.797.381zm0-37.41a14.448 14.448 0 0 0-3.507.387 18.679 18.679 0 0 0-3.312.967 19.164 19.164 0 0 0-3.117 1.643 19.563 19.563 0 0 0-2.728 2.223 19.475 19.475 0 0 0-2.241 2.707 18.918 18.918 0 0 0-1.656 3.093 14.028 14.028 0 0 0-.974 3.287 21.146 21.146 0 0 0-.39 3.48 14.127 14.127 0 0 0 .39 3.48 18.32 18.32 0 0 0 .974 3.287 18.918 18.918 0 0 0 1.656 3.093 19.475 19.475 0 0 0 2.241 2.707 19.563 19.563 0 0 0 2.728 2.223 19.165 19.165 0 0 0 3.117 1.643 14.3 14.3 0 0 0 3.312.967 17.143 17.143 0 0 0 7.014 0 18.679 18.679 0 0 0 3.312-.967 19.165 19.165 0 0 0 3.117-1.643 19.563 19.563 0 0 0 2.728-2.223 20.781 20.781 0 0 0 2.241-2.707 18.919 18.919 0 0 0 1.656-3.093 14.028 14.028 0 0 0 .974-3.287 21.146 21.146 0 0 0 .39-3.48 14.127 14.127 0 0 0-.39-3.48 18.32 18.32 0 0 0-.974-3.287 18.919 18.919 0 0 0-1.656-3.093 19.476 19.476 0 0 0-2.241-2.707 20.874 20.874 0 0 0-2.728-2.223 19.164 19.164 0 0 0-3.117-1.643 14.3 14.3 0 0 0-3.312-.967 21.628 21.628 0 0 0-3.507-.387z" class="cls-2" data-name="Path 523" transform="translate(-.199 -.061)"/>
</svg>
