<svg xmlns="http://www.w3.org/2000/svg" viewBox="0 0 58 56.001">
    <defs>
        <style>
            .cls-1{fill:#3a5695}.cls-2{fill:#c01517}
        </style>
    </defs>
    <g id="icon_people" transform="translate(0 .025)">
        <path id="Path_516" d="M47.173 13.1a7.283 7.283 0 0 1-2.513-.482 5.235 5.235 0 0 1-2.127-1.445 10.313 10.313 0 0 1-1.45-2.12 7.216 7.216 0 0 1-.483-2.5 7.216 7.216 0 0 1 .483-2.5 8.24 8.24 0 0 1 1.45-2.12A8.27 8.27 0 0 1 44.66.481a6.5 6.5 0 0 1 5.027 0 5.235 5.235 0 0 1 2.127 1.445 8.241 8.241 0 0 1 1.45 2.12 7.216 7.216 0 0 1 .483 2.5 7.216 7.216 0 0 1-.483 2.5 5.216 5.216 0 0 1-1.45 2.12 8.27 8.27 0 0 1-2.127 1.445 7.282 7.282 0 0 1-2.514.489zm0-11.176a3.549 3.549 0 0 0-1.74.385 5.2 5.2 0 0 0-1.547.963 4.194 4.194 0 0 0-.967 1.542 5.61 5.61 0 0 0-.387 1.734 3.768 3.768 0 0 0 .387 1.734 5.173 5.173 0 0 0 .967 1.542 3.25 3.25 0 0 0 1.547.963 4.607 4.607 0 0 0 3.577 0 5.2 5.2 0 0 0 1.547-.963 4.194 4.194 0 0 0 .967-1.542 5.61 5.61 0 0 0 .386-1.732 3.518 3.518 0 0 0-.387-1.734 5.173 5.173 0 0 0-.967-1.542 4.212 4.212 0 0 0-1.547-.963 4.2 4.2 0 0 0-1.836-.385z" class="cls-1" data-name="Path 516" transform="translate(-1.353)"/>
        <path id="Path_517" d="M49.783 52.855h-5.606a3.708 3.708 0 0 1-3.77-3.757v-12.14a.967.967 0 0 1 1.933 0V49.1a1.9 1.9 0 0 0 1.837 1.831h5.607A1.9 1.9 0 0 0 51.62 49.1V36h3.77a1.9 1.9 0 0 0 1.837-1.831V21.157a1.9 1.9 0 0 0-1.837-1.831H38.57a1.9 1.9 0 0 0-1.837 1.831v.963a.967.967 0 0 1-1.933 0v-.963a3.768 3.768 0 0 1 3.77-3.757h16.82a3.708 3.708 0 0 1 3.77 3.757v13.007a3.768 3.768 0 0 1-3.77 3.757h-1.837V49.1a3.768 3.768 0 0 1-3.77 3.755z" class="cls-1" data-name="Path 517" transform="translate(-1.16 -.637)"/>
        <path id="Path_518" d="M12.373 13.1a7.283 7.283 0 0 1-2.513-.48 5.235 5.235 0 0 1-2.127-1.445 8.24 8.24 0 0 1-1.45-2.12A7.216 7.216 0 0 1 5.8 6.55a7.216 7.216 0 0 1 .483-2.5 8.24 8.24 0 0 1 1.45-2.12A8.27 8.27 0 0 1 9.86.481a6.5 6.5 0 0 1 5.027 0 8.27 8.27 0 0 1 2.127 1.445 8.24 8.24 0 0 1 1.45 2.12 7.216 7.216 0 0 1 .483 2.5 7.216 7.216 0 0 1-.483 2.5 5.216 5.216 0 0 1-1.45 2.12 10.352 10.352 0 0 1-2.127 1.445 7.283 7.283 0 0 1-2.514.489zm0-11.176a3.549 3.549 0 0 0-1.74.385 5.2 5.2 0 0 0-1.547.963 4.194 4.194 0 0 0-.966 1.544 3.518 3.518 0 0 0-.387 1.734 3.518 3.518 0 0 0 .387 1.735 5.173 5.173 0 0 0 .967 1.542 4.212 4.212 0 0 0 1.547.963 4.607 4.607 0 0 0 3.577 0 5.2 5.2 0 0 0 1.547-.963 3.236 3.236 0 0 0 .967-1.542 5.61 5.61 0 0 0 .385-1.735 3.518 3.518 0 0 0-.387-1.734 5.173 5.173 0 0 0-.967-1.542 4.212 4.212 0 0 0-1.547-.963 4.2 4.2 0 0 0-1.836-.385z" class="cls-1" data-name="Path 518" transform="translate(-.193)"/>
        <path id="Path_519" d="M14.983 52.855H9.377a3.708 3.708 0 0 1-3.77-3.755V37.921H3.77A3.708 3.708 0 0 1 0 34.164V21.157A3.708 3.708 0 0 1 3.77 17.4h16.82a3.708 3.708 0 0 1 3.77 3.757.967.967 0 0 1-1.933 0 1.9 1.9 0 0 0-1.837-1.831H3.77a1.9 1.9 0 0 0-1.837 1.831v13.007a1.9 1.9 0 0 0 1.837 1.83h3.77V49.1a1.9 1.9 0 0 0 1.837 1.831h5.607A1.9 1.9 0 0 0 16.82 49.1V36.958a.967.967 0 0 1 1.933 0V49.1a3.768 3.768 0 0 1-3.77 3.755z" class="cls-1" data-name="Path 519" transform="translate(0 -.637)"/>
        <path id="Path_520" d="M29.773 17a7.283 7.283 0 0 1-2.513-.482 5.235 5.235 0 0 1-2.127-1.445 8.24 8.24 0 0 1-1.45-2.12 7.216 7.216 0 0 1-.483-2.5 7.216 7.216 0 0 1 .483-2.5 5.216 5.216 0 0 1 1.45-2.12 10.351 10.351 0 0 1 2.127-1.452 6.5 6.5 0 0 1 5.027 0 5.235 5.235 0 0 1 2.127 1.445 8.241 8.241 0 0 1 1.45 2.12 7.216 7.216 0 0 1 .483 2.5 7.216 7.216 0 0 1-.483 2.5 5.216 5.216 0 0 1-1.45 2.12 10.351 10.351 0 0 1-2.127 1.445 7.283 7.283 0 0 1-2.514.489zm0-11.176a3.549 3.549 0 0 0-1.74.385 5.2 5.2 0 0 0-1.547.963 4.194 4.194 0 0 0-.967 1.542 5.61 5.61 0 0 0-.387 1.734 3.518 3.518 0 0 0 .387 1.734 5.173 5.173 0 0 0 .967 1.542 4.212 4.212 0 0 0 1.547.963 4.607 4.607 0 0 0 3.577 0 5.2 5.2 0 0 0 1.547-.963 3.236 3.236 0 0 0 .967-1.542 5.61 5.61 0 0 0 .387-1.734 3.518 3.518 0 0 0-.387-1.734 5.173 5.173 0 0 0-.967-1.542 4.212 4.212 0 0 0-1.547-.963 4.5 4.5 0 0 0-1.837-.383z" class="cls-2" data-name="Path 520" transform="translate(-.773 -.143)"/>
        <path id="Path_521" d="M32.383 56.755h-5.606A3.708 3.708 0 0 1 23.007 53V41.821H21.17a3.708 3.708 0 0 1-3.77-3.757V25.057a3.708 3.708 0 0 1 3.77-3.757h16.82a3.708 3.708 0 0 1 3.77 3.757v13.007a3.708 3.708 0 0 1-3.77 3.757h-1.837V53a3.768 3.768 0 0 1-3.77 3.755zM21.17 23.227a1.9 1.9 0 0 0-1.837 1.831v13.006a1.9 1.9 0 0 0 1.837 1.831h3.77V53a1.9 1.9 0 0 0 1.837 1.831h5.607A1.9 1.9 0 0 0 34.22 53V39.9h3.77a1.9 1.9 0 0 0 1.837-1.831V25.057a1.9 1.9 0 0 0-1.837-1.831z" class="cls-2" data-name="Path 521" transform="translate(-.58 -.78)"/>
    </g>
</svg>
