<svg xmlns="http://www.w3.org/2000/svg" viewBox="0 0 42 42">
    <defs>
        <style>
            .cls-1{fill:none;stroke:#686c7c;stroke-linecap:round;stroke-miterlimit:10;stroke-width:2px}
        </style>
    </defs>
    <g id="icon_gear" data-name="icon gear" transform="translate(-1379 -979)">
        <ellipse id="layer2" cx="6" cy="6" class="cls-1" rx="6" ry="6" transform="translate(1390 998)"/>
        <ellipse id="layer1" cx="4" cy="4" class="cls-1" rx="4" ry="4" transform="translate(1404.667 987.333)"/>
        <path id="layer2-2" d="M20.667 15.333V15a1 1 0 0 0-1-1h-3.334a1 1 0 0 0-1 1v2.62a12.583 12.583 0 0 0-4.2 1.745l-1.856-1.857a1 1 0 0 0-1.414 0l-2.355 2.359a1 1 0 0 0 0 1.414l1.857 1.853a12.581 12.581 0 0 0-1.745 4.2H3a1 1 0 0 0-1 1v3.333a1 1 0 0 0 1 1h2.62a12.583 12.583 0 0 0 1.745 4.2l-1.857 1.854a1 1 0 0 0 0 1.414l2.359 2.357a1 1 0 0 0 1.414 0l1.853-1.856a12.583 12.583 0 0 0 4.2 1.744V45a1 1 0 0 0 1 1h3.333a1 1 0 0 0 1-1v-2.62a12.583 12.583 0 0 0 4.2-1.745l1.857 1.857a1 1 0 0 0 1.414 0l2.355-2.359a1 1 0 0 0 0-1.414l-1.856-1.853a12.583 12.583 0 0 0 1.744-4.2H33a1 1 0 0 0 1-1v-3.333a1 1 0 0 0-1-1h-.333" class="cls-1" data-name="layer2" transform="translate(1378 974)"/>
        <path id="layer1-2" d="M49.667 11.333h-1.908a8.607 8.607 0 0 0-1.114-2.64l1.333-1.333a1 1 0 0 0 0-1.414l-1.259-1.255a1 1 0 0 0-1.414 0l-1.334 1.333a8.607 8.607 0 0 0-2.638-1.116V3a1 1 0 0 0-1-1h-2a1 1 0 0 0-1 1v1.908a8.607 8.607 0 0 0-2.64 1.114L33.36 4.689a1 1 0 0 0-1.414 0l-1.255 1.259a1 1 0 0 0 0 1.414L32.024 8.7a8.607 8.607 0 0 0-1.116 2.638H29a1 1 0 0 0-1 1v2a1 1 0 0 0 1 1h1.908a8.607 8.607 0 0 0 1.114 2.64l-1.333 1.333a1 1 0 0 0 0 1.414l1.257 1.257a1 1 0 0 0 1.414 0l1.333-1.333a8.607 8.607 0 0 0 2.64 1.114v1.908a1 1 0 0 0 1 1h2a1 1 0 0 0 1-1v-1.912a8.607 8.607 0 0 0 2.64-1.114l1.333 1.333a1 1 0 0 0 1.414 0l1.257-1.257a1 1 0 0 0 0-1.414l-1.333-1.333a8.607 8.607 0 0 0 1.114-2.64h1.908a1 1 0 0 0 1-1v-2a1 1 0 0 0-1-1z" class="cls-1" data-name="layer1" transform="translate(1369.333 978)"/>
    </g>
</svg>
