<svg xmlns="http://www.w3.org/2000/svg" viewBox="0 0 44 44">
    <defs>
        <style>
            .cls-1{fill:#fff}
        </style>
    </defs>
    <path id="icon_fb" d="M23.467 44H2.444A2.421 2.421 0 0 1 0 41.556V2.444A2.421 2.421 0 0 1 2.444 0h39.112A2.421 2.421 0 0 1 44 2.444v39.112A2.421 2.421 0 0 1 41.556 44H30.311V26.889h5.671l.88-6.649h-6.551v-4.2c0-1.956.489-3.227 3.324-3.227h3.52V6.942a39.165 39.165 0 0 0-5.084-.293c-5.084 0-8.507 3.129-8.507 8.8v4.889H17.8v6.649h5.671zm-1.956-1.956v-13.2H17.7a1.961 1.961 0 0 1-1.956-1.956V20.24a1.961 1.961 0 0 1 1.956-1.956h3.813v-2.933C21.511 8.8 25.618 4.6 31.973 4.6a48.7 48.7 0 0 1 5.378.293 1.916 1.916 0 0 1 1.662 1.956v5.964a1.961 1.961 0 0 1-1.956 1.956h-3.52c-.978 0-1.173.2-1.173.2s-.2.2-.2 1.076v2.249h4.6a1.759 1.759 0 0 1 1.467.684 1.8 1.8 0 0 1 .489 1.564l-.88 6.649a1.916 1.916 0 0 1-1.956 1.662h-3.617v13.1h9.289a.462.462 0 0 0 .489-.489V2.347a.462.462 0 0 0-.489-.489H2.444a.62.62 0 0 0-.489.587v39.111a.524.524 0 0 0 .489.489h19.067" class="cls-1"/>
</svg>
