<svg xmlns="http://www.w3.org/2000/svg" viewBox="0 0 42 42">
    <defs>
        <style>
            .cls-1{fill:none;stroke:#686c7c;stroke-linecap:round;stroke-width:2px}
        </style>
    </defs>
    <g id="icon_code_bug" data-name="icon code bug" transform="translate(-1072 -979)">
        <path id="layer2" d="M12.667 2l5.385 8.883M31.359 2l-5.385 8.883M7.333 42c.5-1.384 2.391-5.055 5.429-5.774M36.667 42c-.5-1.384-2.388-5.055-5.427-5.774M9.991 27.333H2m40 0h-8.009" class="cls-1" transform="translate(1071 978)"/>
        <ellipse id="layer1" cx="12" cy="16" class="cls-1" rx="12" ry="16" transform="translate(1080.991 988)"/>
        <path id="layer1-2" d="M39.333 16a15.9 15.9 0 0 1-14.667 9.333A15.686 15.686 0 0 1 10 16m14.667 9.333v21.334" class="cls-1" data-name="layer1" transform="translate(1068.333 973.333)"/>
    </g>
</svg>
