<svg xmlns="http://www.w3.org/2000/svg" viewBox="0 0 44 30">
    <defs>
        <style>
            .cls-1{fill:#fff}
        </style>
    </defs>
    <g id="icon_mail">
        <path id="Path_502" d="M43.033 30a.878.878 0 0 1-.677-.29L28.914 15.968l-6.189 6a.934.934 0 0 1-1.354 0l-6.189-6L1.644 29.71a.934.934 0 0 1-1.354 0 .936.936 0 0 1 0-1.355l13.442-13.742L.29 1.645A.936.936 0 0 1 .29.29a.934.934 0 0 1 1.354 0l20.308 19.645L42.259.29a.934.934 0 0 1 1.354 0 .936.936 0 0 1 0 1.355L30.268 14.613 43.71 28.355a.936.936 0 0 1 0 1.355 1.044 1.044 0 0 1-.677.29z" class="cls-1" data-name="Path 502"/>
        <path id="Path_503" d="M43.033 30H.967A.914.914 0 0 1 0 29.032V.968A.914.914 0 0 1 .967 0h42.066A.914.914 0 0 1 44 .968v28.064a1.04 1.04 0 0 1-.967.968zm-41.1-1.935h40.133V1.935H1.934z" class="cls-1" data-name="Path 503"/>
    </g>
</svg>
