<svg xmlns="http://www.w3.org/2000/svg" viewBox="0 0 62 58">
    <defs>
        <style>
            .cls-1{fill:#c01517}.cls-2{fill:#3a5695}
        </style>
    </defs>
    <g id="icon_people" transform="translate(-788 -2558)">
        <g id="Group_427" data-name="Group 427" transform="translate(788 2558)">
            <path id="Path_460" d="M31 43.993a8.152 8.152 0 0 1-3.1-.6 8.99 8.99 0 0 1-2.6-1.7 7.817 7.817 0 0 1-1.7-2.6 8.3 8.3 0 0 1 0-6.2 8.985 8.985 0 0 1 1.7-2.6 7.821 7.821 0 0 1 2.6-1.7 8.055 8.055 0 0 1 6.1 0 8.99 8.99 0 0 1 2.6 1.7 8.985 8.985 0 0 1 1.7 2.6 8.3 8.3 0 0 1 0 6.2 8.985 8.985 0 0 1-1.7 2.6 8.99 8.99 0 0 1-2.6 1.7 7.309 7.309 0 0 1-3 .6zM31 30a5.934 5.934 0 0 0-2.3.5 4.968 4.968 0 0 0-1.9 1.3 5.86 5.86 0 0 0-1.3 1.9 5.535 5.535 0 0 0 0 4.6 4.966 4.966 0 0 0 1.3 1.9 8.016 8.016 0 0 0 1.9 1.3 6.105 6.105 0 0 0 4.6 0 4.968 4.968 0 0 0 1.9-1.3 5.86 5.86 0 0 0 1.3-1.9 5.535 5.535 0 0 0 0-4.6 4.966 4.966 0 0 0-1.3-1.9 5.863 5.863 0 0 0-1.9-1.3A5.934 5.934 0 0 0 31 30z" class="cls-1" data-name="Path 460" transform="translate(0 .013)"/>
            <path id="Path_461" d="M44 57.993H18v-3A13.234 13.234 0 0 1 31 42a13.234 13.234 0 0 1 13 12.994zm-24-1zm0-1h22v-1A11.162 11.162 0 0 0 31 44a11.162 11.162 0 0 0-11 11z" class="cls-1" data-name="Path 461" transform="translate(0 .007)"/>
            <path id="Path_462" d="M51 13.994a8.577 8.577 0 0 1-2.7-.5 9.131 9.131 0 0 1-2.3-1.5 5.736 5.736 0 0 1-1.5-2.3A8.567 8.567 0 0 1 44 7a8.567 8.567 0 0 1 .5-2.7A9.126 9.126 0 0 1 46 2 5.739 5.739 0 0 1 48.3.5a7.207 7.207 0 0 1 5.4 0A9.131 9.131 0 0 1 56 2a5.736 5.736 0 0 1 1.5 2.3A8.567 8.567 0 0 1 58 7a8.567 8.567 0 0 1-.5 2.7A9.126 9.126 0 0 1 56 12a5.739 5.739 0 0 1-2.3 1.5 8.577 8.577 0 0 1-2.7.494zM51 2a4.06 4.06 0 0 0-1.9.4 4.569 4.569 0 0 0-1.6 1.1 5.712 5.712 0 0 0-1.1 1.6A4.055 4.055 0 0 0 46 7a4.055 4.055 0 0 0 .4 1.9 4.567 4.567 0 0 0 1.1 1.6 5.715 5.715 0 0 0 1.6 1.1 5 5 0 0 0 3.8 0 4.569 4.569 0 0 0 1.6-1.1 5.713 5.713 0 0 0 1.1-1.6A4.055 4.055 0 0 0 56 7a4.055 4.055 0 0 0-.4-1.9 4.567 4.567 0 0 0-1.1-1.6 5.715 5.715 0 0 0-1.6-1.1A4.06 4.06 0 0 0 51 2z" class="cls-2" data-name="Path 462" transform="translate(0 .025)"/>
            <path id="Path_463" d="M62 25.994H40v-1C40 17.3 44.5 12 51 12s11 5.3 11 12.994zm-20-2h18c-.4-5.9-3.9-10-9-10s-8.6 4.106-9 10.001z" class="cls-2" data-name="Path 463" transform="translate(0 .02)"/>
            <path id="Path_464" d="M11 13.994a8.577 8.577 0 0 1-2.7-.5 9.131 9.131 0 0 1-2.3-1.5A5.128 5.128 0 0 1 4.5 9.7 8.567 8.567 0 0 1 4 7a8.567 8.567 0 0 1 .5-2.7A8.673 8.673 0 0 1 6.1 2 5.739 5.739 0 0 1 8.4.5a7.207 7.207 0 0 1 5.4 0A9.131 9.131 0 0 1 16.1 2a5.128 5.128 0 0 1 1.5 2.3A12.578 12.578 0 0 1 18 7a8.567 8.567 0 0 1-.5 2.7A9.126 9.126 0 0 1 16 12a5.131 5.131 0 0 1-2.3 1.5 8.577 8.577 0 0 1-2.7.494zM11 2a4.06 4.06 0 0 0-1.9.4 3.553 3.553 0 0 0-1.6 1.1 3.552 3.552 0 0 0-1.1 1.6A4.055 4.055 0 0 0 6 7a4.055 4.055 0 0 0 .4 1.9 4.567 4.567 0 0 0 1.1 1.6 5.715 5.715 0 0 0 1.6 1.1 5 5 0 0 0 3.8 0 4.569 4.569 0 0 0 1.6-1.1 5.713 5.713 0 0 0 1.1-1.6A4.055 4.055 0 0 0 16 7a4.055 4.055 0 0 0-.4-1.9 4.567 4.567 0 0 0-1.1-1.6 5.715 5.715 0 0 0-1.6-1.1A4.06 4.06 0 0 0 11 2z" class="cls-2" data-name="Path 464" transform="translate(0 .025)"/>
            <path id="Path_465" d="M22 25.994H0v-1C0 17.3 4.5 12 11 12s11 5.3 11 12.994zm-20-2h18c-.4-5.9-3.9-10-9-10S2.4 18.1 2 23.995z" class="cls-2" data-name="Path 465" transform="translate(0 .02)"/>
            <path id="Path_466" d="M43 39.987a.908.908 0 0 1-.7-.3.966.966 0 0 1 0-1.4l8-8a.99.99 0 1 1 1.4 1.4l-8 8a.908.908 0 0 1-.7.3zm-24 0a.908.908 0 0 1-.7-.3l-8-8a.99.99 0 0 1 1.4-1.4l8 8a.966.966 0 0 1 0 1.4.908.908 0 0 1-.7.3zM39 12H23a.945.945 0 0 1-1-1 .945.945 0 0 1 1-1h16a.945.945 0 0 1 1 1 .945.945 0 0 1-1 1z" class="cls-2" data-name="Path 466" transform="translate(0 .021)"/>
        </g>
    </g>
</svg>
