<svg xmlns="http://www.w3.org/2000/svg" viewBox="0 0 120.999 97">
    <defs>
        <style>
            .cls-1{fill:#d6171a}.cls-2{fill:#fff}.cls-3{fill:none}
        </style>
    </defs>
    <g id="logo" transform="translate(-231 -51)">
        <g id="Group_497" data-name="Group 497" transform="translate(231 51)">
            <path id="Path_131" d="M62.9 100.581a10.194 10.194 0 0 1 2.957-7.381 9.914 9.914 0 0 1 14.215 0A10.123 10.123 0 0 1 83 100.581a10.329 10.329 0 0 1-2.871 7.407 9.477 9.477 0 0 1-7.164 3 9.594 9.594 0 0 1-7.221-2.974 10.281 10.281 0 0 1-2.844-7.433zm4.918 0a8.544 8.544 0 0 0 .483 2.888 4.7 4.7 0 0 0 1.706 2.2 4.809 4.809 0 0 0 2.985.886 4.428 4.428 0 0 0 3.838-1.744 7.5 7.5 0 0 0 0-8.465 4.979 4.979 0 0 0-7.619 0 6.484 6.484 0 0 0-1.393 4.235z" class="cls-1" data-name="Path 131" transform="translate(-45.017 -64.406)"/>
            <path id="Path_132" d="M127.6 194.9v-4h18.65l-2.3 4h-4.75v16.071h-4.549V194.9H127.6z" class="cls-2" data-name="Path 132" transform="translate(-91.323 -136.309)"/>
            <g id="Group_91" data-name="Group 91" transform="translate(24.564)">
                <path id="Path_133" d="M329.824 0L326.1 6.463h7.307L337.1 0z" class="cls-1" data-name="Path 133" transform="translate(-257.952)"/>
                <path id="Path_134" d="M92.825 17.787V6.463h54.3L150.852 0H86.4v17.787z" class="cls-1" data-name="Path 134" transform="translate(-86.4)"/>
                <path id="Path_135" d="M172.971 0l-3.7 6.463h7.136v84.074H92.825V54.62H86.4V97h96.436V0z" class="cls-1" data-name="Path 135" transform="translate(-86.4)"/>
            </g>
            <path id="Path_136" d="M8.245 90.2a10.7 10.7 0 0 1 3.156.486 10.461 10.461 0 0 1 2.3.944l.91.6-2.019 3.517c-.142-.086-.341-.229-.6-.372a10.427 10.427 0 0 0-1.45-.629 5.863 5.863 0 0 0-1.99-.4 2.876 2.876 0 0 0-1.763.486 1.63 1.63 0 0 0-.625 1.315 1.131 1.131 0 0 0 .284.772 3.445 3.445 0 0 0 1 .744c.455.257.881.486 1.223.658s.91.4 1.649.744a9.978 9.978 0 0 1 3.3 2.259 4.545 4.545 0 0 1 1.365 3.231 6.665 6.665 0 0 1-.625 3 4.777 4.777 0 0 1-1.706 2.03 7.582 7.582 0 0 1-2.388 1.087 11.231 11.231 0 0 1-2.843.343 12.528 12.528 0 0 1-2.559-.257 10.209 10.209 0 0 1-2.1-.658 18.93 18.93 0 0 1-1.535-.8 6.651 6.651 0 0 1-1-.658L0 108.359l2.218-3.889c.2.172.512.4.853.658a10.867 10.867 0 0 0 1.791 1 5.171 5.171 0 0 0 2.274.629c1.9 0 2.871-.658 2.871-1.973a1.423 1.423 0 0 0-.2-.772 2.543 2.543 0 0 0-.739-.715c-.341-.229-.654-.429-.91-.572s-.711-.343-1.308-.629-1.052-.486-1.336-.658A7.536 7.536 0 0 1 2.7 99.179a4.821 4.821 0 0 1-1-2.917 5.509 5.509 0 0 1 1.99-4.4A7.138 7.138 0 0 1 8.245 90.2z" class="cls-2" data-name="Path 136" transform="translate(0 -64.406)"/>
            <path id="Path_137" d="M162.09 91.5v4h-11.941v4h6.451v4h-6.454v8.064H145.6V91.5z" class="cls-2" data-name="Path 137" transform="translate(-104.205 -65.334)"/>
            <path id="Path_138" d="M202.8 95.5v-4h16.347l-2.3 4H212.1v16.071h-4.549V95.5z" class="cls-2" data-name="Path 138" transform="translate(-145.143 -65.334)"/>
            <path id="Path_139" d="M318 194.9l2.3-4h16.319v4H329.6v16.071h-4.549V194.9H318z" class="cls-2" data-name="Path 139" transform="translate(-227.591 -136.309)"/>
            <path id="Path_141" d="M217.2 190.829l-2.3 4h-6.88v4h6.909v4h-6.88v4.032h6.88v4H203.5V190.8h13.7z" class="cls-2" data-name="Path 141" transform="translate(-145.644 -136.238)"/>
            <path id="Path_142" d="M263.63 190.3a10.7 10.7 0 0 1 3.156.486 10.462 10.462 0 0 1 2.3.944l.91.6-2.019 3.517c-.142-.086-.341-.229-.6-.372a10.424 10.424 0 0 0-1.45-.629 5.863 5.863 0 0 0-1.99-.4 2.876 2.876 0 0 0-1.763.486 1.63 1.63 0 0 0-.625 1.315 1.131 1.131 0 0 0 .284.772 3.444 3.444 0 0 0 1 .744c.455.257.881.486 1.223.658s.91.4 1.649.743a9.979 9.979 0 0 1 3.3 2.259 4.545 4.545 0 0 1 1.365 3.231 6.665 6.665 0 0 1-.625 3 4.777 4.777 0 0 1-1.706 2.03 7.582 7.582 0 0 1-2.388 1.087 11.232 11.232 0 0 1-2.843.343 12.527 12.527 0 0 1-2.559-.257 10.208 10.208 0 0 1-2.1-.658 18.93 18.93 0 0 1-1.535-.8 6.651 6.651 0 0 1-1-.658l-.313-.257 2.218-3.889c.2.172.512.4.853.658a10.868 10.868 0 0 0 1.791 1 5.171 5.171 0 0 0 2.274.629c1.9 0 2.872-.658 2.872-1.973a1.423 1.423 0 0 0-.2-.772 2.544 2.544 0 0 0-.739-.715c-.341-.229-.654-.429-.91-.572s-.711-.343-1.308-.629-1.052-.486-1.336-.658a7.536 7.536 0 0 1-2.816-2.255 4.821 4.821 0 0 1-1-2.917 5.509 5.509 0 0 1 1.99-4.4 7.292 7.292 0 0 1 4.64-1.691z" class="cls-2" data-name="Path 142" transform="translate(-182.717 -135.88)"/>
        </g>
    </g>
</svg>
