<svg xmlns="http://www.w3.org/2000/svg" id="mail" viewBox="0 0 166.811 59.036">
    <defs>
        <style>
            .cls-1{fill:#168de2}.cls-1,.cls-2,.cls-4{fill-rule:evenodd}.cls-2{fill:#ffa930}.cls-3,.cls-4{fill:#fff}
        </style>
    </defs>
    <g id="Bg_2_">
        <g id="Group_121" data-name="Group 121">
            <path id="Path_212" d="M165.06 0H1.709A1.691 1.691 0 0 0 0 1.709v55.618a1.717 1.717 0 0 0 1.709 1.709H165.1a1.717 1.717 0 0 0 1.709-1.709V1.709A1.753 1.753 0 0 0 165.06 0z" class="cls-1" data-name="Path 212"/>
        </g>
    </g>
    <g id="yellow_1_" transform="translate(10.209 7.111)">
        <path id="Path_213" d="M39.752 23.37a9.141 9.141 0 0 1 6.379 2.752 1.33 1.33 0 0 1 1.292-1.422h.208a1.449 1.449 0 0 1 1.418 1.459v12.512a.812.812 0 0 0 1.376.709c2-2.085 4.419-10.632-1.251-15.593a13.513 13.513 0 0 0-16.135-1.251 12.18 12.18 0 0 0-4.085 14.634c2.71 6.254 10.465 8.13 15.093 6.254 2.335-.959 3.419 2.21 1 3.252-3.669 1.584-13.884 1.418-18.636-6.838a15.119 15.119 0 0 1 5.5-20.471 16.69 16.69 0 0 1 20.349 2.627c5.42 5.67 5.128 16.3-.167 20.429-2.418 1.876-5.962.042-5.962-2.668l-.042-.876a8.852 8.852 0 0 1-6.337 2.627 9.245 9.245 0 0 1-9.006-9.006 9.3 9.3 0 0 1 9.006-9.131zm6 8.755a5.715 5.715 0 0 0-5.92-5.628h-.122c-3.627 0-5.628 2.835-5.628 6.087 0 3.627 2.418 5.92 5.628 5.92a5.938 5.938 0 0 0 6.087-5.67z" class="cls-2" data-name="Path 213" transform="translate(-24.487 -17.056)"/>
        <path id="Path_214" d="M280.219 71.8a1.848 1.848 0 0 1-2 1.584 1.82 1.82 0 0 1-1.919-1.624v-1.334a1.806 1.806 0 0 1 1.96-1.626 1.762 1.762 0 0 1 1.96 1.709z" class="cls-2" data-name="Path 214" transform="translate(-171.314 -47.227)"/>
        <path id="Path_215" d="M302.431 31A10.459 10.459 0 0 0 292.3 41.173v8.3a1.852 1.852 0 0 0 1.793 1.876 1.875 1.875 0 0 0 1.96-1.793V41.09a6.459 6.459 0 0 1 6.337-6.3 1.932 1.932 0 0 0 2-1.918A1.906 1.906 0 0 0 302.431 31z" class="cls-2" data-name="Path 215" transform="translate(-180.643 -25.186)"/>
        <path id="Path_216" d="M345.153 31a1.9 1.9 0 0 0-1.918 1.834v8.338a6.4 6.4 0 0 1-12.8.042v-8.338A1.884 1.884 0 0 0 328.476 31a1.915 1.915 0 0 0-1.876 1.834v8.338a10.215 10.215 0 0 0 20.429.042v-8.338A1.841 1.841 0 0 0 345.153 31z" class="cls-2" data-name="Path 216" transform="translate(-200.642 -25.186)"/>
    </g>
    <g id="white_1_" transform="translate(45.987 7.087)">
        <path id="Path_217" d="M232.719 19.835c0 .834-.834 1.5-2 1.5a1.762 1.762 0 0 1-1.918-1.584v-1.042A1.824 1.824 0 0 1 230.718 17a1.778 1.778 0 0 1 2 1.709z" class="cls-3" data-name="Path 217" transform="translate(-179.395 -17)"/>
        <path id="Path_218" d="M128.186 31.078a8.38 8.38 0 0 0-5.378 2.293 7.049 7.049 0 0 0-4.544-2.293 6.512 6.512 0 0 0-4.419 1.334c-.375-.834-.834-1.334-1.668-1.334a1.963 1.963 0 0 0-1.876 2.043v16.343a1.914 1.914 0 0 0 1.96 1.876 1.9 1.9 0 0 0 1.96-1.918V37.29c0-1.167 2-2.585 3.711-2.543a2.656 2.656 0 0 1 2.376 2.793v11.924a2.046 2.046 0 0 0 2.043 1.876 1.946 1.946 0 0 0 2-1.834V37.415c0-1.459 2.251-2.71 3.794-2.627a2.691 2.691 0 0 1 2.251 2.627v12.049a1.989 1.989 0 0 0 2.043 1.876 1.915 1.915 0 0 0 2-1.876V37.457c.001-4.42-4.339-6.463-6.253-6.379z" class="cls-3" data-name="Path 218" transform="translate(-110.3 -25.199)"/>
        <path id="Path_219" d="M230.818 31a1.92 1.92 0 0 0-1.918 1.96v16.426a1.913 1.913 0 0 0 1.918 1.918 1.974 1.974 0 0 0 2-2V32.96a2.183 2.183 0 0 0-2-1.96z" class="cls-3" data-name="Path 219" transform="translate(-179.453 -25.163)"/>
        <path id="Path_220" d="M191.386 31a1.846 1.846 0 0 0-1.876 1.751v.667A9.876 9.876 0 0 0 183.09 31 10.224 10.224 0 0 0 173 41.173a10.065 10.065 0 0 0 16.51 7.8v.5a1.875 1.875 0 0 0 1.918 1.876 1.9 1.9 0 0 0 1.96-1.96V32.876A2.071 2.071 0 0 0 191.386 31zm-8.255 16.552a6.379 6.379 0 1 1 6.379-6.379 6.379 6.379 0 0 1-6.379 6.379z" class="cls-3" data-name="Path 220" transform="translate(-146.859 -25.163)"/>
        <path id="Path_221" d="M253.63 39.222a4.662 4.662 0 0 1-4.711-4.753V18.834a1.964 1.964 0 0 0-3.919 0v15.677a8.7 8.7 0 0 0 8.589 8.672 1.952 1.952 0 0 0 2-2.043 1.919 1.919 0 0 0-1.959-1.918z" class="cls-3" data-name="Path 221" transform="translate(-188.841 -17)"/>
        <g id="Group_127" data-name="Group 127" transform="translate(68.917 33.229)">
            <g id="Group_122" data-name="Group 122" transform="translate(9.339)">
                <path id="Path_222" d="M302.294 96.7a4.407 4.407 0 0 0-4.294 4.336v3.5a.814.814 0 0 0 1.626.042v-3.586a2.713 2.713 0 0 1 2.668-2.668.811.811 0 0 0 .834-.834.8.8 0 0 0-.834-.79z" class="cls-4" data-name="Path 222" transform="translate(-298 -96.7)"/>
            </g>
            <g id="Group_123" data-name="Group 123" transform="translate(14.467 .042)">
                <path id="Path_223" d="M318.93 101.094a4.4 4.4 0 0 0-4.294-4.294h-.083a4.334 4.334 0 0 0-4.253 4.294 4.4 4.4 0 0 0 4.294 4.294h.083a4.307 4.307 0 0 0 4.253-4.294zm-4.294 2.71a2.7 2.7 0 0 1-2.71-2.668v-.083a2.737 2.737 0 0 1 2.71-2.668 2.7 2.7 0 0 1 2.71 2.668v.083a2.639 2.639 0 0 1-1.918 2.543 2.427 2.427 0 0 1-.792.121z" class="cls-3" data-name="Path 223" transform="translate(-310.3 -96.8)"/>
            </g>
            <g id="Group_124" data-name="Group 124" transform="translate(23.723)">
                <path id="Path_224" d="M340.38 96.7a.79.79 0 0 0-.792.792v3.544a2.731 2.731 0 0 1-5.462.042v-3.544a.8.8 0 0 0-.834-.792.819.819 0 0 0-.792.792v3.544a4.336 4.336 0 0 0 8.672 0v-3.544a.775.775 0 0 0-.792-.834z" class="cls-4" data-name="Path 224" transform="translate(-332.5 -96.7)"/>
            </g>
            <g id="Group_125" data-name="Group 125" transform="translate(33.059)">
                <path id="Path_225" d="M359.273 96.7a4.1 4.1 0 0 0-2.752 1.042v-.292a.784.784 0 0 0-.792-.75.826.826 0 0 0-.834.792v10.423a.8.8 0 0 0 .834.792.836.836 0 0 0 .834-.834v-3.543a4.345 4.345 0 0 0 2.71 1 4.315 4.315 0 0 0 0-8.63zm-.042 7.046a2.665 2.665 0 0 1-2.668-2.335v-.75a2.7 2.7 0 1 1 2.668 3.085z" class="cls-3" data-name="Path 225" transform="translate(-354.892 -96.7)"/>
            </g>
            <g id="Group_126" data-name="Group 126">
                <path id="Path_226" d="M283.438 96.7a.784.784 0 0 0-.792.75v.292a4.256 4.256 0 0 0-7.046 3.294 4.4 4.4 0 0 0 4.294 4.294 4.258 4.258 0 0 0 2.71-1 1.285 1.285 0 0 0 .042.375 2.778 2.778 0 0 1-2.085 2.295 11.079 11.079 0 0 1-3.419-.334c-.584-.083-.834.375-.834.834 0 .334.292.625.834.792a12.358 12.358 0 0 0 3.044.375 4.193 4.193 0 0 0 4.128-4.128V97.45a.9.9 0 0 0-.876-.75zm-3.5 7.046a2.71 2.71 0 1 1 2.71-2.71 2.7 2.7 0 0 1-2.712 2.71z" class="cls-3" data-name="Path 226" transform="translate(-275.6 -96.7)"/>
            </g>
        </g>
    </g>
</svg>
