<svg xmlns="http://www.w3.org/2000/svg" viewBox="0 0 1461.5 71.5">
    <defs>
        <style>
            .cls-1,.cls-10,.cls-11,.cls-12,.cls-3,.cls-4,.cls-5,.cls-6,.cls-7,.cls-8{fill:none}.cls-1,.cls-12,.cls-4,.cls-5,.cls-6{stroke:#3a5695}.cls-1,.cls-10,.cls-11,.cls-12,.cls-3,.cls-4,.cls-5,.cls-7,.cls-8{stroke-miterlimit:10}.cls-1{stroke-width:1.5px}.cls-2{fill:#b2b2b2}.cls-10,.cls-3,.cls-7,.cls-8{stroke:#be1622}.cls-11,.cls-4,.cls-5,.cls-6,.cls-8{stroke-width:.25px}.cls-4,.cls-7{stroke-dasharray:3 3}.cls-9{fill:#be1622}.cls-10{stroke-width:2px}.cls-11{stroke:#b2b2b2}.cls-12{stroke-width:4px}
        </style>
    </defs>
    <g id="scheme" transform="translate(-229.25 -3124.25)">
        <path id="Path_114" d="M66.7 309.571a33 33 0 1 0-66 0v-.141a33 33 0 1 0 66 0" class="cls-1" data-name="Path 114" transform="translate(229.3 2848.5)"/>
        <circle id="Ellipse_75" cx="6" cy="6" r="6" class="cls-2" data-name="Ellipse 75" transform="translate(257 3152)"/>
        <path id="Path_116" d="M27.8 316.033a13.5 13.5 0 1 0-27 0v-.065a13.5 13.5 0 0 0 27 .065" class="cls-3" data-name="Path 116" transform="translate(231.2 2851)"/>
        <path id="Path_118" d="M53.5 318.9a11 11 0 1 0-22 0 11 11 0 1 0 22 0" class="cls-4" data-name="Path 118" transform="translate(220.5 2839.1)"/>
        <path id="Line_591" d="M0 0h321.851" class="cls-5" data-name="Line 591" transform="translate(263 3147)"/>
        <path id="Line_678" d="M0 0h398" class="cls-5" data-name="Line 678" transform="translate(1259 3143)"/>
        <path id="Line_676" d="M0 0h230.662" class="cls-5" data-name="Line 676" transform="translate(585.338 3147)"/>
        <path id="Line_592" d="M0 0h321.851" class="cls-5" data-name="Line 592" transform="translate(263 3169)"/>
        <path id="Line_679" d="M0 0h398" class="cls-5" data-name="Line 679" transform="translate(1259 3173)"/>
        <path id="Line_677" d="M0 0h230.662" class="cls-5" data-name="Line 677" transform="translate(585.338 3169)"/>
        <path id="Path_125" d="M0 0h443" class="cls-6" data-name="Path 125" transform="translate(816 3156)"/>
        <path id="Path_126" d="M0 0h443" class="cls-6" data-name="Path 126" transform="translate(816 3160)"/>
        <path id="Path_121" d="M193.5 44.4a11 11 0 0 0-22 0 11 11 0 0 0 22 0" class="cls-1" data-name="Path 121" transform="translate(633.5 3113.6)"/>
        <path id="Path_124" d="M204.7 34.57a33 33 0 1 0-66 0v-.14a33 33 0 1 0 66 0" class="cls-7" data-name="Path 124" transform="translate(644.3 3123.5)"/>
        <path id="Path_123" d="M187.1 47a2 2 0 0 0-4 0 2 2 0 0 0 4 0" class="cls-8" data-name="Path 123" transform="translate(630.9 3111)"/>
        <path id="Path_120" d="M343.2 33.771a33 33 0 1 0-66 0v-.141a33 33 0 1 0 66 0" class="cls-1" data-name="Path 120" transform="translate(948.8 3124.3)"/>
        <circle id="Ellipse_74" cx="2" cy="2" r="2" class="cls-9" data-name="Ellipse 74" transform="translate(1257 3156)"/>
        <path id="Path_122" d="M305.3 41.736a14 14 0 1 0-28 0v-.072a14 14 0 0 0 28 .072" class="cls-10" data-name="Path 122" transform="translate(967.701 3116.3)"/>
        <path id="Path_128" d="M66.7 309.57a33 33 0 1 0-66 0v-.141a33 33 0 1 0 66 0" class="cls-1" data-name="Path 128" transform="translate(1623.3 2848.5)"/>
        <circle id="Ellipse_75-2" cx="6" cy="6" r="6" class="cls-2" data-name="Ellipse 75" transform="translate(1651 3152)"/>
        <path id="Path_129" d="M27.8 316.033a13.5 13.5 0 1 0-27 0v-.065a13.5 13.5 0 0 0 27 .065" class="cls-10" data-name="Path 129" transform="translate(1658.275 2853.324)"/>
        <path id="Path_130" d="M61.5 322.9a15 15 0 1 0-30 0 15 15 0 0 0 30 0" class="cls-4" data-name="Path 130" transform="translate(1610.5 2835.1)"/>
        <path id="Path_117" d="M341 308.869a33 33 0 1 0-66 0v-.138a33 33 0 1 0 66 0" class="cls-11" data-name="Path 117" transform="translate(277 2849.199)"/>
        <path id="Path_119" d="M329.6 318.9a11 11 0 1 0-22 0 11 11 0 1 0 22 0" class="cls-12" data-name="Path 119" transform="translate(266.4 2839.1)"/>
        <path id="Path_115" d="M364.5 354a11 11 0 1 0-22 0 11 11 0 0 0 22 0" class="cls-1" data-name="Path 115" transform="translate(247 2830)"/>
        <circle id="Ellipse_73" cx="2" cy="2" r="2" class="cls-9" data-name="Ellipse 73" transform="translate(607 3178)"/>
    </g>
</svg>
