<svg xmlns="http://www.w3.org/2000/svg" id="ростех" viewBox="0 0 67.896 83.307">
    <defs>
        <style>
            .cls-1{fill-rule:evenodd}
        </style>
    </defs>
    <path id="path10" d="M16.329 76.871a2.765 2.765 0 0 1 0 5.493 2.765 2.765 0 0 1 0-5.493zm0-2.093a4.839 4.839 0 1 1-4.875 4.839 4.858 4.858 0 0 1 4.875-4.838zm11.4 2.093a2.372 2.372 0 0 1 2.063 1.092l1.6-1.536a4.839 4.839 0 1 0 .061 6.311l-1.664-1.425a2.41 2.41 0 0 1-2.062 1.051 2.765 2.765 0 0 1 0-5.493zm16.114 3.382h7a5.026 5.026 0 0 0 .04-.635 4.7 4.7 0 1 0-4.7 4.839c1.481 0 3.183-.251 4.045-1.353l-1.071-1.549c-.537.772-1.958.987-2.864.987a2.633 2.633 0 0 1-2.45-2.289zm.053-1.5a2.426 2.426 0 0 1 4.794 0zM32.869 75H40.4v2.076h-2.6v7.16h-2.327v-7.16h-2.6V75zm21.868 4.475L51.565 75h2.8l1.9 2.859L58.164 75h2.8l-3.172 4.475 3.316 4.761H58.4l-2.136-3.091-2.136 3.091h-2.707zm1.529-1.183l-.011.018h.022zm-50.472-4.5a1.83 1.83 0 1 1 0 3.66H2.708v-3.66zM.152 71.613h6.167a4 4 0 1 1 0 8.007H2.708v4.615H.152V71.613z" class="cls-1" transform="translate(-.002 -1.15)"/>
    <path id="path12" d="M7.8 7.8h20.4L20.4 0H0v20.4l7.8 7.8V7.8zm24.618 0h20.4v20.4l7.8-7.8V0h-20.4l-7.8 7.8zm20.4 24.618v20.4h-20.4l7.8 7.8h20.4v-20.4zM28.2 52.818H7.8v-20.4L0 40.225v20.4h20.4l7.8-7.8z" class="cls-1"/>
    <path id="path14" d="M63.833.336h1.952v.42h-.766v2.338H64.6V.756h-.766v-.42zm3.706 2.054l.914-2.054h.469v2.758H68.5V1.282l-.81 1.812h-.305l-.809-1.812v1.812h-.421V.336h.469z" transform="translate(-1.025 -.005)"/>
</svg>
