<svg xmlns="http://www.w3.org/2000/svg" id="яндекс" viewBox="0 0 133.603 51.165">
    <defs>
        <style>
            .cls-1{fill:red}
        </style>
    </defs>
    <path id="XMLID_22_" d="M13.261 27.709L5.6 44.918H0l8.432-18.4C4.446 24.49 1.84 20.849 1.84 14.142 1.84 4.714 7.78 0 14.909 0h7.244v44.918h-4.868V27.709zM17.285 4.1h-2.568c-3.909 0-7.665 2.568-7.665 10.041 0 7.244 3.449 9.543 7.665 9.543h2.568z" class="cls-1"/>
    <path id="XMLID_14_" d="M91.155 33.86v31.657h-4.829V51.336h-7.282v14.219H74.1V33.86h4.906v13.452h7.282V33.86zm25.18 37.9h-4.407v-6.205H98.36v6.209h-4.407V61.531h1.955c2.874-6.707 3.219-16.518 3.219-24.95V33.86h14.717v27.633h2.529v10.271zm-7.359-33.957H103.5v.575c0 6.669-.307 16.4-2.951 23.11h8.432zm20.887 28.169c-6.554 0-10.54-5.212-10.54-14.947 0-10.195 2.836-17.591 9.543-17.591 5.289 0 8.738 3.948 8.738 14.717v2.721h-13.182c0 7.167 1.993 10.923 5.9 10.923a10.853 10.853 0 0 0 6.209-2.146l1.15 3.756a12.666 12.666 0 0 1-7.817 2.572zm-5.4-19.163h8.125c0-5.4-.882-9.351-3.718-9.351-3.03-.034-4.104 3.684-4.41 9.356zm23.034 2.951v15.79h-4.906V33.86h4.906V48.5l7.588-14.64h4.982l-7.857 14.909 8.968 16.787h-5.327zm14.334-.077c0-9.926 3.833-16.288 11.268-16.288a9.856 9.856 0 0 1 5.826 1.648l-.69 4.637a8.267 8.267 0 0 0-5.212-2.185c-3.526 0-6.017 3.948-6.017 11.958 0 7.933 1.878 12.456 5.825 12.456a7.994 7.994 0 0 0 5.327-1.955L179.3 63.6a9.526 9.526 0 0 1-6.592 2.376c-6.78.001-10.881-5.476-10.881-16.288z" transform="translate(-45.701 -20.599)"/>
</svg>
